<svg width="25" height="23" viewBox="0 0 25 23" fill="none" xmlns="http://www.w3.org/2000/svg">
<g id="favs">
<path id="Vector" d="M22.6995 2.30527C22.0825 1.68828 21.35 1.19892 20.5438 0.865161C19.7376 0.5314 18.8735 0.35978 18.0009 0.360108C17.1284 0.360436 16.2644 0.532705 15.4585 0.86707C14.6526 1.20144 13.9204 1.69134 13.3039 2.30879L12.4991 3.12338L11.701 2.31056L11.6958 2.30537C11.0791 1.68867 10.347 1.19948 9.54124 0.865724C8.73549 0.531968 7.87189 0.360186 6.99974 0.360186C6.1276 0.360186 5.264 0.531968 4.45825 0.865724C3.6525 1.19948 2.92037 1.68867 2.30368 2.30537L1.94516 2.66389C0.699694 3.90936 0 5.59858 0 7.35993C0 9.12129 0.699694 10.8105 1.94516 12.056L11.4075 21.5182L12.476 22.6378L12.5015 22.6122L12.5292 22.6399L13.5303 21.5836L23.058 12.0558C24.3016 10.8094 25 9.12051 25 7.35978C25 5.59904 24.3016 3.91019 23.058 2.66374L22.6995 2.30527ZM21.8837 10.8818L12.5015 20.2643L3.1191 10.8818C2.185 9.94772 1.66023 8.68081 1.66023 7.3598C1.66023 6.03879 2.185 4.77188 3.1191 3.83778L3.47767 3.47926C4.41131 2.54562 5.67746 2.02089 6.99782 2.02039C8.31819 2.0199 9.58473 2.54368 10.5191 3.47661L12.4955 5.48905L14.4813 3.47926C14.9439 3.01673 15.4929 2.64984 16.0973 2.39952C16.7016 2.14921 17.3493 2.02037 18.0034 2.02037C18.6575 2.02037 19.3052 2.14921 19.9095 2.39952C20.5138 2.64984 21.0629 3.01673 21.5254 3.47926L21.884 3.83773C22.8166 4.7726 23.3404 6.03926 23.3404 7.35982C23.3403 8.68038 22.8165 9.94701 21.8837 10.8818Z" fill="#141517"/>
</g>
</svg>
