<svg width="421" height="117" viewBox="0 0 421 117" fill="none" xmlns="http://www.w3.org/2000/svg">
<path d="M57.6094 26.7812L35.5312 94H22.0781L0.09375 26.7812H15.375L28.7812 71.6406L42.2344 26.7812H57.6094ZM169.031 94H155.625V72.9531C152.656 72.2031 149.922 71 147.422 69.3438C144.953 67.6875 142.828 65.7188 141.047 63.4375C139.266 61.125 137.875 58.5781 136.875 55.7969C135.906 52.9844 135.422 50.0312 135.422 46.9375V26.7812H148.875V46.9375C148.875 48.7812 149.219 50.5312 149.906 52.1875C150.625 53.8125 151.594 55.2344 152.812 56.4531C154.031 57.6719 155.453 58.6406 157.078 59.3594C158.734 60.0469 160.484 60.3906 162.328 60.3906C164.172 60.3906 165.906 60.0469 167.531 59.3594C169.188 58.6406 170.625 57.6719 171.844 56.4531C173.062 55.2344 174.016 53.8125 174.703 52.1875C175.422 50.5312 175.781 48.7812 175.781 46.9375V26.7812H189.188V46.9375C189.188 50.0312 188.688 52.9844 187.688 55.7969C186.719 58.5781 185.344 61.125 183.562 63.4375C181.781 65.7188 179.656 67.6875 177.188 69.3438C174.719 71 172 72.2031 169.031 72.9531V94ZM237.141 67.1406V53.6875C237.141 51.8438 236.781 50.1094 236.062 48.4844C235.375 46.8281 234.422 45.3906 233.203 44.1719C231.984 42.9531 230.547 42 228.891 41.3125C227.266 40.5938 225.531 40.2344 223.688 40.2344C221.844 40.2344 220.094 40.5938 218.438 41.3125C216.812 42 215.391 42.9531 214.172 44.1719C212.953 45.3906 211.984 46.8281 211.266 48.4844C210.578 50.1094 210.234 51.8438 210.234 53.6875V67.1406H237.141ZM250.594 94H237.141V80.5469H210.234V94H196.828V53.6875C196.828 49.9688 197.531 46.4844 198.938 43.2344C200.344 39.9531 202.25 37.0938 204.656 34.6562C207.094 32.2188 209.938 30.2969 213.188 28.8906C216.469 27.4844 219.969 26.7812 223.688 26.7812C227.406 26.7812 230.891 27.4844 234.141 28.8906C237.422 30.2969 240.281 32.2188 242.719 34.6562C245.156 37.0938 247.078 39.9531 248.484 43.2344C249.891 46.4844 250.594 49.9688 250.594 53.6875V94ZM315.75 87.2031C312.625 89.8594 309.141 91.9062 305.297 93.3438C301.453 94.75 297.453 95.4531 293.297 95.4531C290.109 95.4531 287.031 95.0312 284.062 94.1875C281.125 93.375 278.375 92.2188 275.812 90.7188C273.25 89.1875 270.906 87.375 268.781 85.2812C266.656 83.1562 264.844 80.8125 263.344 78.25C261.844 75.6562 260.672 72.875 259.828 69.9062C259.016 66.9375 258.609 63.8594 258.609 60.6719C258.609 57.4844 259.016 54.4219 259.828 51.4844C260.672 48.5469 261.844 45.7969 263.344 43.2344C264.844 40.6406 266.656 38.2969 268.781 36.2031C270.906 34.0781 273.25 32.2656 275.812 30.7656C278.375 29.2656 281.125 28.1094 284.062 27.2969C287.031 26.4531 290.109 26.0312 293.297 26.0312C297.453 26.0312 301.453 26.75 305.297 28.1875C309.141 29.5938 312.625 31.625 315.75 34.2812L308.719 46C306.688 43.9375 304.344 42.3281 301.688 41.1719C299.031 39.9844 296.234 39.3906 293.297 39.3906C290.359 39.3906 287.594 39.9531 285 41.0781C282.438 42.2031 280.188 43.7344 278.25 45.6719C276.312 47.5781 274.781 49.8281 273.656 52.4219C272.531 54.9844 271.969 57.7344 271.969 60.6719C271.969 63.6406 272.531 66.4219 273.656 69.0156C274.781 71.6094 276.312 73.875 278.25 75.8125C280.188 77.75 282.438 79.2812 285 80.4062C287.594 81.5312 290.359 82.0938 293.297 82.0938C294.984 82.0938 296.625 81.8906 298.219 81.4844C299.812 81.0781 301.328 80.5156 302.766 79.7969V60.6719H315.75V87.2031ZM339.562 94H326.109V26.7812H339.562V94ZM417.938 60.6719C417.938 63.8594 417.516 66.9375 416.672 69.9062C415.859 72.8438 414.703 75.6094 413.203 78.2031C411.703 80.7656 409.891 83.1094 407.766 85.2344C405.641 87.3594 403.297 89.1875 400.734 90.7188C398.172 92.2188 395.406 93.375 392.438 94.1875C389.469 95.0312 386.391 95.4531 383.203 95.4531C380.016 95.4531 376.938 95.0312 373.969 94.1875C371.031 93.375 368.266 92.2188 365.672 90.7188C363.109 89.1875 360.766 87.3594 358.641 85.2344C356.516 83.1094 354.688 80.7656 353.156 78.2031C351.656 75.6094 350.484 72.8438 349.641 69.9062C348.828 66.9375 348.422 63.8594 348.422 60.6719C348.422 57.4844 348.828 54.4062 349.641 51.4375C350.484 48.4688 351.656 45.7031 353.156 43.1406C354.688 40.5781 356.516 38.2344 358.641 36.1094C360.766 33.9844 363.109 32.1719 365.672 30.6719C368.266 29.1719 371.031 28.0156 373.969 27.2031C376.938 26.3594 380.016 25.9375 383.203 25.9375C386.391 25.9375 389.469 26.3594 392.438 27.2031C395.406 28.0156 398.172 29.1719 400.734 30.6719C403.297 32.1719 405.641 33.9844 407.766 36.1094C409.891 38.2344 411.703 40.5781 413.203 43.1406C414.703 45.7031 415.859 48.4688 416.672 51.4375C417.516 54.4062 417.938 57.4844 417.938 60.6719ZM404.578 60.6719C404.578 57.7344 404.016 54.9688 402.891 52.375C401.766 49.75 400.234 47.4844 398.297 45.5781C396.391 43.6406 394.125 42.1094 391.5 40.9844C388.906 39.8594 386.141 39.2969 383.203 39.2969C380.234 39.2969 377.453 39.8594 374.859 40.9844C372.266 42.1094 370 43.6406 368.062 45.5781C366.125 47.4844 364.594 49.75 363.469 52.375C362.344 54.9688 361.781 57.7344 361.781 60.6719C361.781 63.6094 362.344 66.375 363.469 68.9688C364.594 71.5312 366.125 73.7812 368.062 75.7188C370 77.6562 372.266 79.1875 374.859 80.3125C377.453 81.4375 380.234 82 383.203 82C386.141 82 388.906 81.4375 391.5 80.3125C394.125 79.1875 396.391 77.6562 398.297 75.7188C400.234 73.7812 401.766 71.5312 402.891 68.9688C404.016 66.375 404.578 63.6094 404.578 60.6719Z" fill="black"/>
<path d="M129.938 60.6719C129.938 63.8594 129.516 66.9375 128.672 69.9062C127.859 72.8438 126.703 75.6094 125.203 78.2031C123.703 80.7656 121.891 83.1094 119.766 85.2344C117.641 87.3594 115.297 89.1875 112.734 90.7188C110.172 92.2188 107.406 93.375 104.438 94.1875C101.469 95.0312 98.3906 95.4531 95.2031 95.4531C92.0156 95.4531 88.9375 95.0312 85.9688 94.1875C83.0312 93.375 80.2656 92.2188 77.6719 90.7188C75.1094 89.1875 72.7656 87.3594 70.6406 85.2344C68.5156 83.1094 66.6875 80.7656 65.1562 78.2031C63.6562 75.6094 62.4844 72.8438 61.6406 69.9062C60.8281 66.9375 60.4219 63.8594 60.4219 60.6719C60.4219 57.4844 60.8281 54.4062 61.6406 51.4375C62.4844 48.4688 63.6562 45.7031 65.1562 43.1406C66.6875 40.5781 68.5156 38.2344 70.6406 36.1094C72.7656 33.9844 75.1094 32.1719 77.6719 30.6719C80.2656 29.1719 83.0312 28.0156 85.9688 27.2031C88.9375 26.3594 92.0156 25.9375 95.2031 25.9375C98.3906 25.9375 101.469 26.3594 104.438 27.2031C107.406 28.0156 110.172 29.1719 112.734 30.6719C115.297 32.1719 117.641 33.9844 119.766 36.1094C121.891 38.2344 123.703 40.5781 125.203 43.1406C126.703 45.7031 127.859 48.4688 128.672 51.4375C129.516 54.4062 129.938 57.4844 129.938 60.6719ZM116.578 60.6719C116.578 57.7344 116.016 54.9688 114.891 52.375C113.766 49.75 112.234 47.4844 110.297 45.5781C108.391 43.6406 106.125 42.1094 103.5 40.9844C100.906 39.8594 98.1406 39.2969 95.2031 39.2969C92.2344 39.2969 89.4531 39.8594 86.8594 40.9844C84.2656 42.1094 82 43.6406 80.0625 45.5781C78.125 47.4844 76.5938 49.75 75.4688 52.375C74.3438 54.9688 73.7812 57.7344 73.7812 60.6719C73.7812 63.6094 74.3438 66.375 75.4688 68.9688C76.5938 71.5312 78.125 73.7812 80.0625 75.7188C82 77.6562 84.2656 79.1875 86.8594 80.3125C89.4531 81.4375 92.2344 82 95.2031 82C98.1406 82 100.906 81.4375 103.5 80.3125C106.125 79.1875 108.391 77.6562 110.297 75.7188C112.234 73.7812 113.766 71.5312 114.891 68.9688C116.016 66.375 116.578 63.6094 116.578 60.6719Z" fill="#0B94F8"/>
<path d="M68.3214 109.636L80.6029 88.3639" stroke="#0B94F8" stroke-width="14" stroke-linecap="round"/>
</svg>
