<svg width="115" height="31" viewBox="0 0 115 31" fill="none" xmlns="http://www.w3.org/2000/svg">
<path d="M14.4023 7.19531L8.88281 24H5.51953L0.0234375 7.19531H3.84375L7.19531 18.4102L10.5586 7.19531H14.4023ZM42.2578 24H38.9062V18.7383C38.1641 18.5508 37.4805 18.25 36.8555 17.8359C36.2383 17.4219 35.707 16.9297 35.2617 16.3594C34.8164 15.7812 34.4688 15.1445 34.2188 14.4492C33.9766 13.7461 33.8555 13.0078 33.8555 12.2344V7.19531H37.2188V12.2344C37.2188 12.6953 37.3047 13.1328 37.4766 13.5469C37.6562 13.9531 37.8984 14.3086 38.2031 14.6133C38.5078 14.918 38.8633 15.1602 39.2695 15.3398C39.6836 15.5117 40.1211 15.5977 40.582 15.5977C41.043 15.5977 41.4766 15.5117 41.8828 15.3398C42.2969 15.1602 42.6562 14.918 42.9609 14.6133C43.2656 14.3086 43.5039 13.9531 43.6758 13.5469C43.8555 13.1328 43.9453 12.6953 43.9453 12.2344V7.19531H47.2969V12.2344C47.2969 13.0078 47.1719 13.7461 46.9219 14.4492C46.6797 15.1445 46.3359 15.7812 45.8906 16.3594C45.4453 16.9297 44.9141 17.4219 44.2969 17.8359C43.6797 18.25 43 18.5508 42.2578 18.7383V24ZM59.2852 17.2852V13.9219C59.2852 13.4609 59.1953 13.0273 59.0156 12.6211C58.8438 12.207 58.6055 11.8477 58.3008 11.543C57.9961 11.2383 57.6367 11 57.2227 10.8281C56.8164 10.6484 56.3828 10.5586 55.9219 10.5586C55.4609 10.5586 55.0234 10.6484 54.6094 10.8281C54.2031 11 53.8477 11.2383 53.543 11.543C53.2383 11.8477 52.9961 12.207 52.8164 12.6211C52.6445 13.0273 52.5586 13.4609 52.5586 13.9219V17.2852H59.2852ZM62.6484 24H59.2852V20.6367H52.5586V24H49.207V13.9219C49.207 12.9922 49.3828 12.1211 49.7344 11.3086C50.0859 10.4883 50.5625 9.77344 51.1641 9.16406C51.7734 8.55469 52.4844 8.07422 53.2969 7.72266C54.1172 7.37109 54.9922 7.19531 55.9219 7.19531C56.8516 7.19531 57.7227 7.37109 58.5352 7.72266C59.3555 8.07422 60.0703 8.55469 60.6797 9.16406C61.2891 9.77344 61.7695 10.4883 62.1211 11.3086C62.4727 12.1211 62.6484 12.9922 62.6484 13.9219V24ZM78.9375 22.3008C78.1562 22.9648 77.2852 23.4766 76.3242 23.8359C75.3633 24.1875 74.3633 24.3633 73.3242 24.3633C72.5273 24.3633 71.7578 24.2578 71.0156 24.0469C70.2812 23.8438 69.5938 23.5547 68.9531 23.1797C68.3125 22.7969 67.7266 22.3438 67.1953 21.8203C66.6641 21.2891 66.2109 20.7031 65.8359 20.0625C65.4609 19.4141 65.168 18.7188 64.957 17.9766C64.7539 17.2344 64.6523 16.4648 64.6523 15.668C64.6523 14.8711 64.7539 14.1055 64.957 13.3711C65.168 12.6367 65.4609 11.9492 65.8359 11.3086C66.2109 10.6602 66.6641 10.0742 67.1953 9.55078C67.7266 9.01953 68.3125 8.56641 68.9531 8.19141C69.5938 7.81641 70.2812 7.52734 71.0156 7.32422C71.7578 7.11328 72.5273 7.00781 73.3242 7.00781C74.3633 7.00781 75.3633 7.1875 76.3242 7.54688C77.2852 7.89844 78.1562 8.40625 78.9375 9.07031L77.1797 12C76.6719 11.4844 76.0859 11.082 75.4219 10.793C74.7578 10.4961 74.0586 10.3477 73.3242 10.3477C72.5898 10.3477 71.8984 10.4883 71.25 10.7695C70.6094 11.0508 70.0469 11.4336 69.5625 11.918C69.0781 12.3945 68.6953 12.957 68.4141 13.6055C68.1328 14.2461 67.9922 14.9336 67.9922 15.668C67.9922 16.4102 68.1328 17.1055 68.4141 17.7539C68.6953 18.4023 69.0781 18.9688 69.5625 19.4531C70.0469 19.9375 70.6094 20.3203 71.25 20.6016C71.8984 20.8828 72.5898 21.0234 73.3242 21.0234C73.7461 21.0234 74.1562 20.9727 74.5547 20.8711C74.9531 20.7695 75.332 20.6289 75.6914 20.4492V15.668H78.9375V22.3008ZM84.8906 24H81.5273V7.19531H84.8906V24ZM104.484 15.668C104.484 16.4648 104.379 17.2344 104.168 17.9766C103.965 18.7109 103.676 19.4023 103.301 20.0508C102.926 20.6914 102.473 21.2773 101.941 21.8086C101.41 22.3398 100.824 22.7969 100.184 23.1797C99.543 23.5547 98.8516 23.8438 98.1094 24.0469C97.3672 24.2578 96.5977 24.3633 95.8008 24.3633C95.0039 24.3633 94.2344 24.2578 93.4922 24.0469C92.7578 23.8438 92.0664 23.5547 91.418 23.1797C90.7773 22.7969 90.1914 22.3398 89.6602 21.8086C89.1289 21.2773 88.6719 20.6914 88.2891 20.0508C87.9141 19.4023 87.6211 18.7109 87.4102 17.9766C87.207 17.2344 87.1055 16.4648 87.1055 15.668C87.1055 14.8711 87.207 14.1016 87.4102 13.3594C87.6211 12.6172 87.9141 11.9258 88.2891 11.2852C88.6719 10.6445 89.1289 10.0586 89.6602 9.52734C90.1914 8.99609 90.7773 8.54297 91.418 8.16797C92.0664 7.79297 92.7578 7.50391 93.4922 7.30078C94.2344 7.08984 95.0039 6.98438 95.8008 6.98438C96.5977 6.98438 97.3672 7.08984 98.1094 7.30078C98.8516 7.50391 99.543 7.79297 100.184 8.16797C100.824 8.54297 101.41 8.99609 101.941 9.52734C102.473 10.0586 102.926 10.6445 103.301 11.2852C103.676 11.9258 103.965 12.6172 104.168 13.3594C104.379 14.1016 104.484 14.8711 104.484 15.668ZM101.145 15.668C101.145 14.9336 101.004 14.2422 100.723 13.5938C100.441 12.9375 100.059 12.3711 99.5742 11.8945C99.0977 11.4102 98.5312 11.0273 97.875 10.7461C97.2266 10.4648 96.5352 10.3242 95.8008 10.3242C95.0586 10.3242 94.3633 10.4648 93.7148 10.7461C93.0664 11.0273 92.5 11.4102 92.0156 11.8945C91.5312 12.3711 91.1484 12.9375 90.8672 13.5938C90.5859 14.2422 90.4453 14.9336 90.4453 15.668C90.4453 16.4023 90.5859 17.0938 90.8672 17.7422C91.1484 18.3828 91.5312 18.9453 92.0156 19.4297C92.5 19.9141 93.0664 20.2969 93.7148 20.5781C94.3633 20.8594 95.0586 21 95.8008 21C96.5352 21 97.2266 20.8594 97.875 20.5781C98.5312 20.2969 99.0977 19.9141 99.5742 19.4297C100.059 18.9453 100.441 18.3828 100.723 17.7422C101.004 17.0938 101.145 16.4023 101.145 15.668Z" fill="white"/>
<path d="M32.4844 15.668C32.4844 16.4648 32.3789 17.2344 32.168 17.9766C31.9648 18.7109 31.6758 19.4023 31.3008 20.0508C30.9258 20.6914 30.4727 21.2773 29.9414 21.8086C29.4102 22.3398 28.8242 22.7969 28.1836 23.1797C27.543 23.5547 26.8516 23.8438 26.1094 24.0469C25.3672 24.2578 24.5977 24.3633 23.8008 24.3633C23.0039 24.3633 22.2344 24.2578 21.4922 24.0469C20.7578 23.8438 20.0664 23.5547 19.418 23.1797C18.7773 22.7969 18.1914 22.3398 17.6602 21.8086C17.1289 21.2773 16.6719 20.6914 16.2891 20.0508C15.9141 19.4023 15.6211 18.7109 15.4102 17.9766C15.207 17.2344 15.1055 16.4648 15.1055 15.668C15.1055 14.8711 15.207 14.1016 15.4102 13.3594C15.6211 12.6172 15.9141 11.9258 16.2891 11.2852C16.6719 10.6445 17.1289 10.0586 17.6602 9.52734C18.1914 8.99609 18.7773 8.54297 19.418 8.16797C20.0664 7.79297 20.7578 7.50391 21.4922 7.30078C22.2344 7.08984 23.0039 6.98438 23.8008 6.98438C24.5977 6.98438 25.3672 7.08984 26.1094 7.30078C26.8516 7.50391 27.543 7.79297 28.1836 8.16797C28.8242 8.54297 29.4102 8.99609 29.9414 9.52734C30.4727 10.0586 30.9258 10.6445 31.3008 11.2852C31.6758 11.9258 31.9648 12.6172 32.168 13.3594C32.3789 14.1016 32.4844 14.8711 32.4844 15.668ZM29.1445 15.668C29.1445 14.9336 29.0039 14.2422 28.7227 13.5938C28.4414 12.9375 28.0586 12.3711 27.5742 11.8945C27.0977 11.4102 26.5312 11.0273 25.875 10.7461C25.2266 10.4648 24.5352 10.3242 23.8008 10.3242C23.0586 10.3242 22.3633 10.4648 21.7148 10.7461C21.0664 11.0273 20.5 11.4102 20.0156 11.8945C19.5312 12.3711 19.1484 12.9375 18.8672 13.5938C18.5859 14.2422 18.4453 14.9336 18.4453 15.668C18.4453 16.4023 18.5859 17.0938 18.8672 17.7422C19.1484 18.3828 19.5312 18.9453 20.0156 19.4297C20.5 19.9141 21.0664 20.2969 21.7148 20.5781C22.3633 20.8594 23.0586 21 23.8008 21C24.5352 21 25.2266 20.8594 25.875 20.5781C26.5312 20.2969 27.0977 19.9141 27.5742 19.4297C28.0586 18.9453 28.4414 18.3828 28.7227 17.7422C29.0039 17.0938 29.1445 16.4023 29.1445 15.668Z" fill="#0B94F8"/>
<path d="M17 28.2698L19.8686 23" stroke="#0B94F8" stroke-width="4" stroke-linecap="round"/>
</svg>

