<svg xmlns="http://www.w3.org/2000/svg" width="231" height="230" viewBox="0 0 231 230" fill="none">
  <path d="M172.834 124.564H124.918V172.481C124.918 175.022 123.908 177.46 122.111 179.257C120.314 181.054 117.876 182.064 115.334 182.064C112.793 182.064 110.355 181.054 108.558 179.257C106.761 177.46 105.751 175.022 105.751 172.481V124.564H57.8343C55.2927 124.564 52.8551 123.554 51.0579 121.757C49.2606 119.96 48.251 117.522 48.251 114.981C48.251 112.439 49.2606 110.002 51.0579 108.204C52.8551 106.407 55.2927 105.397 57.8343 105.397H105.751V57.4808C105.751 54.9392 106.761 52.5016 108.558 50.7044C110.355 48.9072 112.793 47.8975 115.334 47.8975C117.876 47.8975 120.314 48.9072 122.111 50.7044C123.908 52.5016 124.918 54.9392 124.918 57.4808V105.397H172.834C175.376 105.397 177.814 106.407 179.611 108.204C181.408 110.002 182.418 112.439 182.418 114.981C182.418 117.522 181.408 119.96 179.611 121.757C177.814 123.554 175.376 124.564 172.834 124.564Z" fill="#0B94F8"/>
</svg>
