<svg width="10" height="10" viewBox="0 0 10 10" fill="none" xmlns="http://www.w3.org/2000/svg">
<path d="M6.94562 0.524153C7.28112 0.18859 7.73617 4.68924e-05 8.21068 8.74575e-09C8.68519 -4.6875e-05 9.14029 0.188406 9.47585 0.523902C9.81141 0.859399 9.99995 1.31446 10 1.78897C10 2.26348 9.81159 2.71857 9.4761 3.05413L9.0301 3.50063L6.50012 0.970149L6.94562 0.524153ZM5.97013 1.50064L0.97017 6.5001C0.767067 6.70322 0.624276 6.95868 0.557673 7.2381L0.0101777 9.53908C-0.00464637 9.6014 -0.0032565 9.66648 0.0142148 9.72812C0.0316861 9.78975 0.0646563 9.84589 0.109981 9.89116C0.155305 9.93643 0.211473 9.96934 0.273127 9.98675C0.334781 10.0041 0.399866 10.0055 0.462174 9.99057L2.76265 9.44258C3.04225 9.37606 3.29789 9.23326 3.50115 9.03008L8.50011 4.03062L5.97013 1.50064Z" fill="#141517"/>
</svg>

