<svg width="54" height="56" viewBox="0 0 54 56" fill="none" xmlns="http://www.w3.org/2000/svg">
<g id="icon-park-solid:instagram">
<g id="Mask group">
<mask id="mask0_44_36240" style="mask-type:luminance" maskUnits="userSpaceOnUse" x="5" y="6" width="44" height="44">
<g id="Group">
<g id="Group_2">
<path id="Vector" d="M38.25 7H15.75C13.3631 7 11.0739 7.98333 9.38604 9.73367C7.69821 11.484 6.75 13.858 6.75 16.3333V39.6667C6.75 42.142 7.69821 44.516 9.38604 46.2663C11.0739 48.0167 13.3631 49 15.75 49H38.25C40.6369 49 42.9261 48.0167 44.614 46.2663C46.3018 44.516 47.25 42.142 47.25 39.6667V16.3333C47.25 13.858 46.3018 11.484 44.614 9.73367C42.9261 7.98333 40.6369 7 38.25 7Z" fill="white" stroke="white" stroke-width="2" stroke-linejoin="round"/>
<path id="Vector_2" d="M27 37.3333C29.3869 37.3333 31.6761 36.35 33.364 34.5996C35.0518 32.8493 36 30.4753 36 28C36 25.5246 35.0518 23.1506 33.364 21.4003C31.6761 19.65 29.3869 18.6666 27 18.6666C24.6131 18.6666 22.3239 19.65 20.636 21.4003C18.9482 23.1506 18 25.5246 18 28C18 30.4753 18.9482 32.8493 20.636 34.5996C22.3239 36.35 24.6131 37.3333 27 37.3333Z" fill="black" stroke="black" stroke-width="2" stroke-linejoin="round"/>
<path id="Vector_3" d="M39.375 17.5C39.9717 17.5 40.544 17.2542 40.966 16.8166C41.3879 16.379 41.625 15.7855 41.625 15.1667C41.625 14.5479 41.3879 13.9544 40.966 13.5168C40.544 13.0792 39.9717 12.8334 39.375 12.8334C38.7783 12.8334 38.206 13.0792 37.784 13.5168C37.3621 13.9544 37.125 14.5479 37.125 15.1667C37.125 15.7855 37.3621 16.379 37.784 16.8166C38.206 17.2542 38.7783 17.5 39.375 17.5Z" fill="black"/>
</g>
</g>
</mask>
<g mask="url(#mask0_44_36240)">
<path id="Vector_4" d="M0 0L54 0V56H0L0 0Z" fill="white"/>
</g>
</g>
</g>
</svg>
