<svg width="79" height="79" viewBox="0 0 79 79" fill="none" xmlns="http://www.w3.org/2000/svg">
<g clip-path="url(#clip0_668_16291)">
<rect width="79" height="79" rx="10" fill="white"/>
<path d="M65.0625 30.7812C65.0625 32.9062 64.7812 34.9583 64.2188 36.9375C63.6771 38.8958 62.9062 40.7396 61.9062 42.4688C60.9062 44.1771 59.6979 45.7396 58.2812 47.1562C56.8646 48.5729 55.3021 49.7917 53.5938 50.8125C51.8854 51.8125 50.0417 52.5833 48.0625 53.125C46.0833 53.6875 44.0312 53.9688 41.9062 53.9688C39.7812 53.9688 37.7292 53.6875 35.75 53.125C33.7917 52.5833 31.9479 51.8125 30.2188 50.8125C28.5104 49.7917 26.9479 48.5729 25.5312 47.1562C24.1146 45.7396 22.8958 44.1771 21.875 42.4688C20.875 40.7396 20.0938 38.8958 19.5312 36.9375C18.9896 34.9583 18.7188 32.9062 18.7188 30.7812C18.7188 28.6562 18.9896 26.6042 19.5312 24.625C20.0938 22.6458 20.875 20.8021 21.875 19.0938C22.8958 17.3854 24.1146 15.8229 25.5312 14.4062C26.9479 12.9896 28.5104 11.7812 30.2188 10.7812C31.9479 9.78125 33.7917 9.01042 35.75 8.46875C37.7292 7.90625 39.7812 7.625 41.9062 7.625C44.0312 7.625 46.0833 7.90625 48.0625 8.46875C50.0417 9.01042 51.8854 9.78125 53.5938 10.7812C55.3021 11.7812 56.8646 12.9896 58.2812 14.4062C59.6979 15.8229 60.9062 17.3854 61.9062 19.0938C62.9062 20.8021 63.6771 22.6458 64.2188 24.625C64.7812 26.6042 65.0625 28.6562 65.0625 30.7812ZM56.1562 30.7812C56.1562 28.8229 55.7812 26.9792 55.0312 25.25C54.2812 23.5 53.2604 21.9896 51.9688 20.7188C50.6979 19.4271 49.1875 18.4062 47.4375 17.6562C45.7083 16.9062 43.8646 16.5312 41.9062 16.5312C39.9271 16.5312 38.0729 16.9062 36.3438 17.6562C34.6146 18.4062 33.1042 19.4271 31.8125 20.7188C30.5208 21.9896 29.5 23.5 28.75 25.25C28 26.9792 27.625 28.8229 27.625 30.7812C27.625 32.7396 28 34.5833 28.75 36.3125C29.5 38.0208 30.5208 39.5208 31.8125 40.8125C33.1042 42.1042 34.6146 43.125 36.3438 43.875C38.0729 44.625 39.9271 45 41.9062 45C43.8646 45 45.7083 44.625 47.4375 43.875C49.1875 43.125 50.6979 42.1042 51.9688 40.8125C53.2604 39.5208 54.2812 38.0208 55.0312 36.3125C55.7812 34.5833 56.1562 32.7396 56.1562 30.7812Z" fill="#0B94F8"/>
<path d="M21 66.5885L30 51" stroke="#0B94F8" stroke-width="10" stroke-linecap="round"/>
</g>
<defs>
<clipPath id="clip0_668_16291">
<rect width="79" height="79" rx="10" fill="white"/>
</clipPath>
</defs>
</svg>
