<svg width="25" height="25" viewBox="0 0 25 25" fill="none" xmlns="http://www.w3.org/2000/svg">
<path d="M5.20833 7.29167C6.35891 7.29167 7.29167 6.35891 7.29167 5.20833C7.29167 4.05774 6.35891 3.125 5.20833 3.125C4.05774 3.125 3.125 4.05774 3.125 5.20833C3.125 6.35891 4.05774 7.29167 5.20833 7.29167Z" fill="#0B94F8"/>
<path d="M12.4998 7.29167C13.6504 7.29167 14.5832 6.35891 14.5832 5.20833C14.5832 4.05774 13.6504 3.125 12.4998 3.125C11.3493 3.125 10.4165 4.05774 10.4165 5.20833C10.4165 6.35891 11.3493 7.29167 12.4998 7.29167Z" fill="#0B94F8"/>
<path d="M19.7918 7.29167C20.9424 7.29167 21.8752 6.35891 21.8752 5.20833C21.8752 4.05774 20.9424 3.125 19.7918 3.125C18.6413 3.125 17.7085 4.05774 17.7085 5.20833C17.7085 6.35891 18.6413 7.29167 19.7918 7.29167Z" fill="#0B94F8"/>
<path d="M5.20833 14.5833C6.35891 14.5833 7.29167 13.6506 7.29167 12.5C7.29167 11.3494 6.35891 10.4167 5.20833 10.4167C4.05774 10.4167 3.125 11.3494 3.125 12.5C3.125 13.6506 4.05774 14.5833 5.20833 14.5833Z" fill="#0B94F8"/>
<path d="M12.4998 14.5833C13.6504 14.5833 14.5832 13.6506 14.5832 12.5C14.5832 11.3494 13.6504 10.4167 12.4998 10.4167C11.3493 10.4167 10.4165 11.3494 10.4165 12.5C10.4165 13.6506 11.3493 14.5833 12.4998 14.5833Z" fill="#0B94F8"/>
<path d="M19.7918 14.5833C20.9424 14.5833 21.8752 13.6506 21.8752 12.5C21.8752 11.3494 20.9424 10.4167 19.7918 10.4167C18.6413 10.4167 17.7085 11.3494 17.7085 12.5C17.7085 13.6506 18.6413 14.5833 19.7918 14.5833Z" fill="#0B94F8"/>
<path d="M5.20833 21.875C6.35891 21.875 7.29167 20.9423 7.29167 19.7917C7.29167 18.6411 6.35891 17.7083 5.20833 17.7083C4.05774 17.7083 3.125 18.6411 3.125 19.7917C3.125 20.9423 4.05774 21.875 5.20833 21.875Z" fill="#0B94F8"/>
<path d="M12.4998 21.875C13.6504 21.875 14.5832 20.9423 14.5832 19.7917C14.5832 18.6411 13.6504 17.7083 12.4998 17.7083C11.3493 17.7083 10.4165 18.6411 10.4165 19.7917C10.4165 20.9423 11.3493 21.875 12.4998 21.875Z" fill="#0B94F8"/>
<path d="M19.7918 21.875C20.9424 21.875 21.8752 20.9423 21.8752 19.7917C21.8752 18.6411 20.9424 17.7083 19.7918 17.7083C18.6413 17.7083 17.7085 18.6411 17.7085 19.7917C17.7085 20.9423 18.6413 21.875 19.7918 21.875Z" fill="#0B94F8"/>
</svg>
