<svg width="14" height="14" viewBox="0 0 14 14" fill="none" xmlns="http://www.w3.org/2000/svg">
<path d="M13.0813 5.32056C13.0283 5.15726 12.9285 5.01315 12.7942 4.90618C12.6599 4.79921 12.4971 4.73412 12.3261 4.719L9.07819 4.439L7.80506 1.4115C7.73878 1.25264 7.62697 1.11694 7.48373 1.0215C7.34048 0.926051 7.17219 0.875122 7.00006 0.875122C6.82793 0.875122 6.65964 0.926051 6.5164 1.0215C6.37315 1.11694 6.26135 1.25264 6.19506 1.4115L4.92576 4.439L1.67405 4.72064C1.50235 4.73507 1.33873 4.79987 1.20371 4.90691C1.06869 5.01396 0.968284 5.15849 0.915077 5.32237C0.86187 5.48625 0.858233 5.6622 0.904623 5.82814C0.951012 5.99408 1.04536 6.14264 1.17584 6.25517L3.6428 8.41095L2.90342 11.6124C2.86432 11.7799 2.87548 11.9552 2.93549 12.1165C2.99551 12.2777 3.10172 12.4176 3.24084 12.5188C3.37996 12.62 3.54583 12.678 3.7177 12.6854C3.88958 12.6928 4.05983 12.6494 4.20717 12.5606L6.99623 10.8653L9.79131 12.5606C9.93865 12.6494 10.1089 12.6928 10.2808 12.6854C10.4527 12.678 10.6185 12.62 10.7576 12.5188C10.8968 12.4176 11.003 12.2777 11.063 12.1165C11.123 11.9552 11.1342 11.7799 11.0951 11.6124L10.3562 8.40767L12.8226 6.25517C12.9531 6.14225 13.0473 5.99327 13.0933 5.82698C13.1393 5.66068 13.1351 5.48449 13.0813 5.32056ZM12.249 5.594L9.78256 7.7465C9.66252 7.85091 9.57322 7.98608 9.52427 8.13746C9.47532 8.28885 9.46857 8.45071 9.50475 8.60564L10.2458 11.8125L7.45287 10.1172C7.31661 10.0342 7.16015 9.99033 7.00061 9.99033C6.84107 9.99033 6.6846 10.0342 6.54834 10.1172L3.75928 11.8125L4.49537 8.60782C4.53155 8.45289 4.5248 8.29103 4.47585 8.13965C4.4269 7.98827 4.3376 7.8531 4.21756 7.74868L1.75006 5.59728C1.74986 5.59564 1.74986 5.59399 1.75006 5.59236L5.00069 5.31126C5.15939 5.29727 5.31126 5.24022 5.43992 5.14626C5.56858 5.05229 5.66915 4.92498 5.73076 4.77806L7.00006 1.75439L8.26881 4.77806C8.33043 4.92498 8.43099 5.05229 8.55965 5.14626C8.68831 5.24022 8.84019 5.29727 8.99889 5.31126L12.2501 5.59236V5.59618L12.249 5.594Z" fill="#ADB5BD"/>
</svg>
