<svg width="45" height="45" viewBox="0 0 45 45" fill="none" xmlns="http://www.w3.org/2000/svg">
<path d="M37.3746 24.4519C37.0206 27.1518 35.9382 29.7044 34.2437 31.8359C32.5491 33.9675 30.3063 35.5976 27.7558 36.5513C25.2053 37.5051 22.4432 37.7465 19.7658 37.2498C17.0885 36.7531 14.5969 35.537 12.5581 33.7318C10.5194 31.9267 9.01057 29.6006 8.19337 27.0031C7.37617 24.4056 7.28146 21.6346 7.9194 18.9874C8.55734 16.3401 9.90387 13.9164 11.8146 11.9763C13.7253 10.0362 16.1281 8.65273 18.7652 7.97438C26.0759 6.09938 33.6434 9.86251 36.4371 16.875" stroke="#F8F9FD" stroke-width="2.7" stroke-linecap="round" stroke-linejoin="round"/>
<path d="M37.5 7.5V16.875H28.125" stroke="#F8F9FD" stroke-width="2.7" stroke-linecap="round" stroke-linejoin="round"/>
</svg>

