<svg width="54" height="54" viewBox="0 0 54 54" fill="none" xmlns="http://www.w3.org/2000/svg">
<g id="uil:vk">
<path id="Vector" d="M33.9142 4.5H20.1083C7.49925 4.5 4.5 7.49925 4.5 20.0858V33.8918C4.5 46.4985 7.47675 49.5 20.0858 49.5H33.8918C46.4985 49.5 49.5 46.5233 49.5 33.9142V20.1083C49.5 7.49925 46.5233 4.5 33.9142 4.5ZM40.8285 36.6075H37.5457C36.3038 36.6075 35.9303 35.6018 33.7028 33.3743C31.7588 31.5 30.9375 31.266 30.4447 31.266C29.7653 31.266 29.5785 31.4527 29.5785 32.391V35.343C29.5785 36.1418 29.3197 36.6097 27.234 36.6097C25.2098 36.4737 23.2468 35.8587 21.5068 34.8154C19.7669 33.7722 18.2996 32.3304 17.226 30.609C14.6771 27.4365 12.9036 23.713 12.0465 19.7347C12.0465 19.242 12.2333 18.7965 13.1715 18.7965H16.452C17.2957 18.7965 17.5995 19.1723 17.9303 20.0385C19.5232 24.7275 22.2412 28.8045 23.3438 28.8045C23.7668 28.8045 23.9513 28.6178 23.9513 27.5625V22.734C23.8118 20.5312 22.6418 20.3445 22.6418 19.548C22.6568 19.3379 22.7531 19.1419 22.9101 19.0017C23.0672 18.8614 23.2728 18.7878 23.4832 18.7965H28.6403C29.3445 18.7965 29.5785 19.1475 29.5785 19.9913V26.5072C29.5785 27.2115 29.8822 27.4455 30.0938 27.4455C30.5168 27.4455 30.843 27.2115 31.617 26.4375C33.2794 24.4101 34.6377 22.1514 35.649 19.7325C35.7524 19.4419 35.948 19.1932 36.2059 19.0242C36.4639 18.8552 36.7701 18.7752 37.0778 18.7965H40.3605C41.3438 18.7965 41.553 19.2893 41.3438 19.9913C40.1501 22.6652 38.6732 25.2035 36.9382 27.5625C36.585 28.1025 36.4432 28.3837 36.9382 29.016C37.2645 29.5087 38.4142 30.4695 39.1882 31.383C40.313 32.5049 41.2471 33.803 41.9535 35.226C42.2347 36.1395 41.7645 36.6075 40.8285 36.6075Z" fill="white"/>
</g>
</svg>
