<svg width="64" height="65" viewBox="0 0 64 65" fill="none" xmlns="http://www.w3.org/2000/svg">
<path d="M48.1601 61.8333H52.5867C54.8267 61.8333 56.6668 60.1 56.9334 57.9133L61.3334 13.9666H48.0001V3.16663H42.7467V13.9666H29.4934L30.2934 20.2066C34.8534 21.46 39.1201 23.7266 41.6801 26.2333C45.5201 30.02 48.1601 33.94 48.1601 40.34V61.8333ZM2.66675 59.1666V56.5H42.7467V59.1666C42.7467 60.6066 41.5467 61.8333 40.0001 61.8333H5.33341C3.86675 61.8333 2.66675 60.6066 2.66675 59.1666ZM42.7467 40.5C42.7467 19.1666 2.66675 19.1666 2.66675 40.5H42.7467ZM2.66675 45.8333H42.6667V51.1666H2.66675V45.8333Z" fill="#111111"/>
</svg>
