<svg width="82" height="65" viewBox="0 0 82 65" fill="none" xmlns="http://www.w3.org/2000/svg">
<path d="M34.6176 0.5C13.3421 0.5 0.577148 17.5666 0.577148 26.1007C0.577148 34.6348 4.83158 41.035 13.3421 41.035C21.8527 41.035 26.1088 43.1672 26.1088 49.5674C26.1088 58.0998 32.4904 64.5 41.0009 64.5C68.6598 64.5 81.4231 49.5674 81.4231 34.6348C81.4214 9.03412 60.1425 0.5 34.6176 0.5ZM29.2987 9.03412C29.9981 9.035 30.6905 9.17363 31.3363 9.44208C31.982 9.71054 32.5686 10.1036 33.0625 10.5987C33.5564 11.0939 33.948 11.6815 34.2148 12.3279C34.4816 12.9744 34.6185 13.6671 34.6176 14.3665C34.6176 17.3139 32.2361 19.7005 29.2987 19.7005C26.3614 19.7005 23.9799 17.3122 23.9799 14.3665C23.979 13.6671 24.1159 12.9744 24.3827 12.3279C24.6495 11.6815 25.041 11.0939 25.5349 10.5987C26.0288 10.1036 26.6154 9.71054 27.2612 9.44208C27.907 9.17363 28.5994 9.035 29.2987 9.03412ZM46.3165 9.03412C47.0158 9.035 47.7082 9.17363 48.354 9.44208C48.9998 9.71054 49.5864 10.1036 50.0803 10.5987C50.5742 11.0939 50.9657 11.6815 51.2325 12.3279C51.4993 12.9744 51.6362 13.6671 51.6353 14.3665C51.6364 15.066 51.4997 15.7589 51.233 16.4055C50.9663 17.0522 50.5748 17.64 50.0809 18.1353C49.5869 18.6306 49.0003 19.0238 48.3544 19.2924C47.7084 19.5609 47.016 19.6996 46.3165 19.7005C45.6171 19.6994 44.9248 19.5606 44.2791 19.2919C43.6334 19.0232 43.0469 18.63 42.5531 18.1347C42.0594 17.6394 41.668 17.0517 41.4014 16.4051C41.1348 15.7586 40.9982 15.0658 40.9993 14.3665C40.9975 12.9543 41.5566 11.5993 42.5537 10.5993C43.5509 9.59935 44.9043 9.03635 46.3165 9.03412ZM63.3375 17.5666C64.0372 17.5672 64.7298 17.7057 65.3759 17.9742C66.022 18.2427 66.6089 18.6358 67.103 19.1312C67.5971 19.6265 67.9888 20.2144 68.2556 20.8611C68.5224 21.5079 68.6592 22.2009 68.6581 22.9006C68.6592 23.6002 68.5224 24.2931 68.2556 24.9398C67.9887 25.5865 67.597 26.1742 67.1029 26.6694C66.6088 27.1646 66.0219 27.5576 65.3758 27.8259C64.7297 28.0942 64.0371 28.2325 63.3375 28.2329C62.6382 28.2323 61.9458 28.0938 61.3 27.8254C60.6542 27.557 60.0676 27.1639 59.5738 26.6687C59.08 26.1735 58.6886 25.5858 58.4221 24.9393C58.1555 24.2927 58.019 23.5999 58.0203 22.9006C58.019 22.2012 58.1555 21.5083 58.422 20.8617C58.6886 20.215 59.0799 19.6272 59.5737 19.1318C60.0675 18.6365 60.6541 18.2433 61.2999 17.9747C61.9457 17.7061 62.6381 17.5674 63.3375 17.5666ZM14.4066 21.8345C15.1058 21.8351 15.798 21.9736 16.4437 22.2418C17.0894 22.5101 17.6759 22.903 18.1697 23.3981C18.6635 23.8931 19.0549 24.4806 19.3215 25.127C19.5882 25.7733 19.7249 26.4659 19.7238 27.1651C19.7238 30.1126 17.3422 32.4992 14.4066 32.4992C11.4709 32.4992 9.08769 30.1109 9.08769 27.1651C9.08635 25.753 9.64592 24.3981 10.6434 23.3985C11.6408 22.3988 12.9944 21.8362 14.4066 21.8345ZM40.9993 43.1672C44.5244 43.1672 47.3809 46.0305 47.3809 49.5691C47.3809 53.1026 44.5244 55.9676 40.9993 55.9676C37.4741 55.9676 34.6176 53.1026 34.6176 49.5691C34.6161 48.7296 34.7799 47.8981 35.0998 47.122C35.4198 46.3459 35.8894 45.6405 36.4821 45.046C37.0747 44.4515 37.7787 43.9795 38.5537 43.6572C39.3288 43.3348 40.1598 43.1683 40.9993 43.1672Z" fill="#111111"/>
</svg>
