<svg width="64" height="65" viewBox="0 0 64 65" fill="none" xmlns="http://www.w3.org/2000/svg">
<g clip-path="url(#clip0_752_9534)">
<path d="M61.7143 60.3042H52.5714V53.2606H59.4286C59.7759 53.2605 60.1186 53.1791 60.4308 53.0227C60.7429 52.8662 61.0162 52.6387 61.2299 52.3575C61.4436 52.0763 61.5922 51.7487 61.6642 51.3997C61.7363 51.0507 61.7299 50.6894 61.6457 50.3433L52.5029 12.7771C52.379 12.2694 52.0935 11.8188 51.6918 11.4968C51.2901 11.1749 50.7952 11 50.2857 11C49.7762 11 49.2813 11.1749 48.8796 11.4968C48.4779 11.8188 48.1924 12.2694 48.0686 12.7771L38.9257 50.3433C38.8415 50.6894 38.8352 51.0507 38.9072 51.3997C38.9793 51.7487 39.1278 52.0763 39.3415 52.3575C39.5552 52.6387 39.8285 52.8662 40.1407 53.0227C40.4528 53.1791 40.7955 53.2605 41.1429 53.2606H48V60.3042H29.7143V55.6084H32C32.6062 55.6084 33.1876 55.3611 33.6162 54.9208C34.0449 54.4805 34.2857 53.8833 34.2857 53.2606C34.2857 52.6379 34.0449 52.0407 33.6162 51.6003C33.1876 51.16 32.6062 50.9127 32 50.9127H29.7143V46.2169H32C32.6062 46.2169 33.1876 45.9695 33.6162 45.5292C34.0449 45.0889 34.2857 44.4917 34.2857 43.869C34.2857 43.2463 34.0449 42.6491 33.6162 42.2088C33.1876 41.7685 32.6062 41.5211 32 41.5211H6.85714C6.25093 41.5211 5.66955 41.7685 5.2409 42.2088C4.81224 42.6491 4.57143 43.2463 4.57143 43.869C4.57143 44.4917 4.81224 45.0889 5.2409 45.5292C5.66955 45.9695 6.25093 46.2169 6.85714 46.2169H9.14286V50.9127H6.85714C6.25093 50.9127 5.66955 51.16 5.2409 51.6003C4.81224 52.0407 4.57143 52.6379 4.57143 53.2606C4.57143 53.8833 4.81224 54.4805 5.2409 54.9208C5.66955 55.3611 6.25093 55.6084 6.85714 55.6084H9.14286V60.3042H2.28571C1.67951 60.3042 1.09812 60.5516 0.66947 60.9919C0.240816 61.4322 0 62.0294 0 62.6521C0 63.2748 0.240816 63.872 0.66947 64.3123C1.09812 64.7526 1.67951 65 2.28571 65H61.7143C62.3205 65 62.9019 64.7526 63.3305 64.3123C63.7592 63.872 64 63.2748 64 62.6521C64 62.0294 63.7592 61.4322 63.3305 60.9919C62.9019 60.5516 62.3205 60.3042 61.7143 60.3042ZM25.1429 60.3042H13.7143V55.6084H25.1429V60.3042ZM25.1429 50.9127H13.7143V46.2169H25.1429V50.9127ZM28.5714 32.1296C30.1537 32.1296 31.7004 31.6476 33.016 30.7447C34.3316 29.8417 35.357 28.5583 35.9625 27.0567C36.568 25.5551 36.7264 23.9028 36.4177 22.3088C36.109 20.7147 35.3471 19.2505 34.2283 18.1012C33.1095 16.952 31.684 16.1693 30.1322 15.8523C28.5803 15.5352 26.9718 15.6979 25.51 16.3199C24.0482 16.9419 22.7987 17.9951 21.9197 19.3465C21.0406 20.6979 20.5714 22.2867 20.5714 23.912C20.5714 26.0914 21.4143 28.1816 22.9146 29.7227C24.4149 31.2638 26.4497 32.1296 28.5714 32.1296ZM28.5714 20.3901C29.2495 20.3901 29.9124 20.5967 30.4762 20.9837C31.0401 21.3707 31.4795 21.9207 31.739 22.5642C31.9985 23.2077 32.0664 23.9159 31.9341 24.599C31.8018 25.2822 31.4753 25.9097 30.9958 26.4023C30.5163 26.8948 29.9054 27.2302 29.2403 27.3661C28.5752 27.502 27.8859 27.4323 27.2594 27.1657C26.6329 26.8992 26.0974 26.4477 25.7207 25.8686C25.3439 25.2894 25.1429 24.6085 25.1429 23.912C25.1429 22.9779 25.5041 22.0821 26.1471 21.4217C26.79 20.7612 27.6621 20.3901 28.5714 20.3901Z" fill="#111111"/>
</g>
<defs>
<clipPath id="clip0_752_9534">
<rect width="64" height="64" fill="white" transform="translate(0 0.5)"/>
</clipPath>
</defs>
</svg>
