<svg width="64" height="65" viewBox="0 0 64 65" fill="none" xmlns="http://www.w3.org/2000/svg">
<path d="M35.0134 39.3266L38.8267 35.5133L56.0001 52.6866L52.1867 56.4999L35.0134 39.3266ZM46.4534 24.0466L54.0801 16.4199C43.5467 5.83328 26.4801 5.83328 16.0001 16.3666C26.4267 12.8999 38.1067 15.6999 46.4534 24.0466ZM15.8667 16.4999C5.3334 26.9799 5.3334 44.0466 15.9201 54.5799L23.5467 46.9533C15.2001 38.6066 12.4001 26.9266 15.8667 16.4999ZM15.9201 16.3933L15.8934 16.4199C14.8801 24.4999 19.0134 34.7666 27.3601 43.1666L42.6667 27.8599C34.2934 19.5133 24.0001 15.3799 15.9201 16.3933Z" fill="black"/>
</svg>
