<svg width="64" height="65" viewBox="0 0 64 65" fill="none" xmlns="http://www.w3.org/2000/svg">
<path d="M18.3636 9L13.8182 13.5L18.3636 18L22.9091 13.5L18.3636 9ZM22.9091 13.5L27.4545 18L32 13.5L27.4545 9L22.9091 13.5ZM32 13.5L36.5455 18L41.0909 13.5L36.5455 9L32 13.5ZM41.0909 13.5L45.6364 18L50.1818 13.5L45.6364 9L41.0909 13.5ZM45.6364 18H7V63H57V18H45.6364ZM11.5455 22.5H52.4545V58.5H38.8182V47.25H25.1818V58.5H11.5455V22.5ZM16.0909 27V31.5H20.6364V27H16.0909ZM25.1818 27V31.5H29.7273V27H25.1818ZM34.2727 27V31.5H38.8182V27H34.2727ZM43.3636 27V31.5H47.9091V27H43.3636ZM16.0909 33.75V38.25H20.6364V33.75H16.0909ZM25.1818 33.75V38.25H29.7273V33.75H25.1818ZM34.2727 33.75V38.25H38.8182V33.75H34.2727ZM43.3636 33.75V38.25H47.9091V33.75H43.3636ZM16.0909 40.5V45H20.6364V40.5H16.0909ZM25.1818 40.5V45H29.7273V40.5H25.1818ZM34.2727 40.5V45H38.8182V40.5H34.2727ZM43.3636 40.5V45H47.9091V40.5H43.3636ZM16.0909 47.25V51.75H20.6364V47.25H16.0909ZM43.3636 47.25V51.75H47.9091V47.25H43.3636ZM29.7273 51.75H34.2727V58.5H29.7273V51.75Z" fill="#111111"/>
</svg>
