<svg width="64" height="65" viewBox="0 0 64 65" fill="none" xmlns="http://www.w3.org/2000/svg">
<path d="M21.6268 52.3667C18.6783 51.2807 16.0544 49.4627 14.0018 47.0836C11.9493 44.7046 10.5355 41.8426 9.89342 38.7667L5.46675 17.9401C4.82675 15.0601 6.66675 12.2334 9.54675 11.6201L35.6001 6.10006L35.6801 6.07339C38.5334 5.51339 41.3334 7.35339 41.9201 10.1801L42.8534 14.6334L54.4534 17.1134H54.5334C57.3334 17.7534 59.1468 20.5801 58.5601 23.4067L54.1334 44.2601C53.6225 46.6556 52.6446 48.9269 51.2557 50.9444C49.8668 52.962 48.0941 54.6861 46.0387 56.0184C43.9833 57.3506 41.6856 58.2649 39.2769 58.7091C36.8681 59.1532 34.3954 59.1184 32.0001 58.6067C27.9365 57.7587 24.2801 55.5591 21.6268 52.3667ZM53.3334 22.3134L27.2801 16.7667L22.8534 37.6201V37.7001C21.3334 44.8467 25.9468 51.8867 33.1201 53.4067C40.2934 54.9267 47.3868 50.3401 48.9068 43.1667L53.3334 22.3134ZM42.6668 44.5001C41.8243 45.9262 40.5548 47.0515 39.0379 47.7167C37.5209 48.3818 35.8332 48.5533 34.2134 48.2067C32.5987 47.8612 31.1322 47.0202 30.0183 45.8012C28.9045 44.5822 28.1989 43.046 28.0001 41.4067L42.6668 44.5001ZM22.5868 14.2867L10.6668 16.8467L15.0934 37.6734L15.1201 37.7534C15.5201 39.6467 16.3201 41.3534 17.4134 42.8201C17.1468 40.7667 17.2001 38.6334 17.6534 36.5001L18.8001 31.1667C17.6001 30.9534 16.5601 30.2867 16.0001 29.3267C16.1601 27.7001 17.4934 26.2601 19.3334 25.8334H20.0001L22.0801 15.6734C22.1868 15.1667 22.3468 14.7134 22.5868 14.2867ZM40.0801 33.1134C40.9334 31.7001 42.7468 30.9534 44.5868 31.3534C46.4268 31.7267 47.7601 33.1401 48.0001 34.7934C47.1201 36.1801 45.3334 36.9267 43.4668 36.5001C41.6268 36.1534 40.2934 34.7401 40.0801 33.1134ZM27.0668 30.3401C27.9201 28.9267 29.7068 28.1801 31.5468 28.5801C33.3334 28.9534 34.7468 30.3934 34.9601 32.0201C34.0801 33.4067 32.2934 34.1801 30.4534 33.8334C28.6134 33.3801 27.2801 31.9667 27.0668 30.3401ZM31.9201 12.3134L37.1468 13.4334L36.7201 11.3001L31.9201 12.3134Z" fill="#111111"/>
</svg>
