<svg width="64" height="65" viewBox="0 0 64 65" fill="none" xmlns="http://www.w3.org/2000/svg">
<path d="M18.64 60.5H14.564C12.5043 60.5009 10.4893 59.8997 8.76683 58.7703C7.04439 57.6409 5.68968 56.0326 4.86936 54.1434C4.04904 52.2541 3.79891 50.1662 4.14974 48.1366C4.50057 46.107 5.43705 44.2243 6.84397 42.72L10.032 39.3C11.5712 37.6505 12.4098 35.4678 12.371 33.212C12.3322 30.9562 11.419 28.8036 9.82397 27.208L6.69197 24.076C6.32765 23.6988 6.12606 23.1936 6.13062 22.6692C6.13517 22.1448 6.34551 21.6432 6.71633 21.2724C7.08714 20.9015 7.58877 20.6912 8.11316 20.6867C8.63756 20.6821 9.14276 20.8837 9.51997 21.248L12.648 24.38C14.9758 26.7087 16.3086 29.8504 16.3653 33.1426C16.422 36.4348 15.1982 39.6205 12.952 42.028L9.76397 45.448C8.8921 46.3838 8.31223 47.5536 8.09545 48.8141C7.87867 50.0746 8.0344 51.3709 8.54354 52.5442C9.05268 53.7175 9.89312 54.7167 10.9618 55.4194C12.0305 56.122 13.281 56.4976 14.56 56.5H16.572C16.564 55.684 16.568 54.66 16.604 53.492C16.708 50.452 17.044 46.36 18.004 42.236C18.964 38.136 20.572 33.844 23.324 30.54C25.776 27.596 29.108 25.48 33.492 24.988V13.244C33.4951 10.9252 34.4179 8.7024 36.0579 7.06315C37.6979 5.42391 39.9212 4.50212 42.24 4.5C44.272 4.5 45.92 6.152 45.92 8.188V10.12H50.628C53.268 10.12 55.712 11.484 57.104 13.728L58.844 16.536C61.888 21.452 58.572 27.752 52.944 28.156V54.284C52.944 57.716 50.164 60.5 46.732 60.5H44.52V54.284C44.5205 52.9142 44.2511 51.5578 43.7273 50.2921C43.2035 49.0265 42.4355 47.8765 41.4671 46.9077C40.4987 45.9389 39.349 45.1705 38.0835 44.6462C36.8181 44.1219 35.4617 43.852 34.092 43.852H30.58C30.0495 43.852 29.5408 44.0627 29.1658 44.4378C28.7907 44.8129 28.58 45.3216 28.58 45.852C28.58 46.3824 28.7907 46.8911 29.1658 47.2662C29.5408 47.6413 30.0495 47.852 30.58 47.852H34.092C37.64 47.852 40.52 50.732 40.52 54.284V60.5H18.64Z" fill="#111111"/>
</svg>
