<svg width="660" height="287" viewBox="0 0 660 287" fill="none" xmlns="http://www.w3.org/2000/svg">
<rect width="660" height="287" fill="#9C8DF7"/>
<path d="M278.61 26.85L270.04 29.75" stroke="#BD865F" stroke-width="2"/>
<path d="M270.04 29.75L269.54 30.75" stroke="#E4A885" stroke-width="2"/>
<path d="M269.54 30.75C269.567 30.6167 269.567 30.5 269.54 30.4C269.528 30.3416 269.504 30.2864 269.468 30.2385C269.433 30.1905 269.387 30.1509 269.335 30.1223C269.282 30.0937 269.224 30.0769 269.165 30.0731C269.105 30.0692 269.046 30.0784 268.99 30.1C264.857 31.7467 261.123 34.0467 257.79 37" stroke="#644F3C" stroke-width="2"/>
<path d="M281.5 34.54C281.053 34.06 280.54 33.88 279.96 34" stroke="#593824" stroke-width="2"/>
<path d="M279.96 34C278.73 30.96 273.19 30.07 270.04 29.75" stroke="#D8916D" stroke-width="2"/>
<path d="M271.6 58.96C270.407 62.6 267.873 64.0433 264 63.29" stroke="#5B637E" stroke-width="2"/>
<path d="M264 63.29C261.847 62.61 260.457 61.1967 259.83 59.05C259.778 58.8557 259.662 58.6833 259.5 58.56C258.213 57.5067 257.463 56.14 257.25 54.46" stroke="#324245" stroke-width="2"/>
<path d="M258.46 52C258.873 51.2 258.887 50.38 258.5 49.54" stroke="#262D32" stroke-width="2"/>
<path d="M279.96 34C280.693 34.9067 280.943 35.9067 280.71 37" stroke="#805A49" stroke-width="2"/>
<path d="M280.71 37L279.02 36.55C278.06 36.2967 277.927 36.5233 278.62 37.23C279.113 37.7367 279.81 37.91 280.71 37.75" stroke="#B17767" stroke-width="2"/>
<path d="M280.71 37.75C281.64 44.5 281.31 49.38 274.74 51.41C274.537 51.4732 274.358 51.5992 274.231 51.7698C274.103 51.9404 274.033 52.147 274.03 52.36C274.017 53.8667 274.317 55.1933 274.93 56.34" stroke="#805A49" stroke-width="2"/>
<path d="M274.93 56.34C274.663 58.26 273.553 59.1333 271.6 58.96" stroke="#DABDC7" stroke-width="2"/>
<path d="M271.6 58.96C270.94 49.48 269.49 41.47 269.54 30.75" stroke="#805A49" stroke-width="2"/>
<path d="M285.21 57.5L283.29 60.26" stroke="#324245" stroke-width="2"/>
<path d="M283.29 60.26C278.59 63.88 275.803 62.5733 274.93 56.34" stroke="#5B637E" stroke-width="2"/>
<path d="M280.71 37.75V37" stroke="#321E1E" stroke-width="2"/>
<path d="M283.29 60.26C289.69 65.0667 292.877 71.6033 292.85 79.87C292.849 79.9722 292.886 80.0708 292.952 80.1467C293.019 80.2225 293.111 80.27 293.21 80.28C293.55 80.3267 293.747 80.1467 293.8 79.74C294.7 72.7267 292.937 66.2567 288.51 60.33" stroke="#8CA5C3" stroke-width="2"/>
<path d="M321.73 97.7C317.543 97.2467 315.287 99.18 314.96 103.5" stroke="#DABDC7" stroke-width="2"/>
<path d="M296.29 107.5L295.71 108.75" stroke="#9FAACA" stroke-width="2"/>
<path d="M295.71 108.75L294.83 106.42C294.771 106.268 294.677 106.133 294.555 106.025C294.433 105.917 294.288 105.84 294.13 105.8L282.75 102.96" stroke="#DABDC7" stroke-width="2"/>
<path d="M282.75 102.96C276.99 99.16 271.11 95.7867 265.11 92.84" stroke="#C6D7FE" stroke-width="2"/>
<path d="M264 63.29C268.36 72.9433 268.73 82.7933 265.11 92.84" stroke="#8CA5C3" stroke-width="2"/>
<path d="M265.11 92.84C263.77 92.74 263.08 92.24 263.48 90.8C266.58 79.76 265.64 68.79 258.31 59.68C256.943 57.9733 255.753 58.09 254.74 60.03C250.76 67.68 243.88 97.82 254.1 102.47C254.259 102.541 254.396 102.651 254.497 102.789C254.599 102.928 254.662 103.09 254.68 103.26L254.79 104.24C254.923 105.387 255.383 105.54 256.17 104.7C256.977 103.84 257.92 103.787 259 104.54" stroke="#9DB6C4" stroke-width="2"/>
<path d="M259 104.54C258.987 105.48 258.603 106.283 257.85 106.95C257.748 107.039 257.665 107.147 257.607 107.27C257.548 107.392 257.516 107.525 257.511 107.661C257.507 107.797 257.53 107.933 257.579 108.06C257.629 108.187 257.704 108.303 257.8 108.4C258.373 108.98 259.023 109.35 259.75 109.51C261.417 109.877 262.75 110.277 263.75 110.71" stroke="#8CA5C3" stroke-width="2"/>
<path d="M263.75 110.71L261.96 114.25" stroke="#9CACB5" stroke-width="2"/>
<path d="M241.83 79C242.66 71.82 242.6 64.58 246.54 58.25" stroke="#576F76" stroke-width="2"/>
<path d="M253.5 55.21L251.25 55.96" stroke="#576F76" stroke-width="2"/>
<path d="M295.71 108.75L295.54 110.5" stroke="#C4A195" stroke-width="2"/>
<path d="M295.54 110.5C296.06 112.2 295.713 113.547 294.5 114.54" stroke="#DDB7AD" stroke-width="2"/>
<path d="M294.5 114.54L292.25 114.79" stroke="#EAC4BA" stroke-width="2"/>
<path d="M292.25 114.79L290.75 115.04" stroke="#DDB7AD" stroke-width="2"/>
<path d="M290.75 115.04C288.48 114.23 286.82 116.19 284.25 114.71" stroke="#EAC4BA" stroke-width="2"/>
<path d="M284.25 114.71C286.73 114.017 287.253 112.137 285.82 109.07C285.737 108.893 285.604 108.744 285.436 108.643C285.269 108.541 285.075 108.491 284.88 108.5L278.75 108.71" stroke="#805A49" stroke-width="2"/>
<path d="M282.75 102.96C280.81 104.447 279.477 106.363 278.75 108.71" stroke="#EBCEC9" stroke-width="2"/>
<path d="M278.75 108.71L274.25 109.29" stroke="#6B7480" stroke-width="2"/>
<path d="M274.25 109.29L259 104.54" stroke="#C6D7FE" stroke-width="2"/>
<path d="M330.75 102.54C330.657 104.1 330.92 105.587 331.54 107" stroke="#805A49" stroke-width="2"/>
<path d="M317.96 107.75C318.853 107.143 319.863 106.85 320.99 106.87C321.1 106.87 321.207 106.835 321.297 106.768C321.387 106.702 321.454 106.608 321.49 106.5C321.92 105.07 317.59 105.23 316.76 105.38C316.595 105.409 316.425 105.387 316.274 105.315C316.123 105.243 315.999 105.126 315.92 104.98L315.79 104.75" stroke="#C4A195" stroke-width="2"/>
<path d="M328.75 209.96C326.743 210.82 325.153 210.883 323.98 210.15" stroke="#AFB1BD" stroke-width="2"/>
<path d="M296.75 111.46L295.54 110.5" stroke="#A2A5B0" stroke-width="2"/>
<path d="M290.75 115.04C291.99 116.21 294.98 135.6 295.51 138.66C296.92 146.95 296.78 155.66 297.28 164.25C297.753 172.45 296.877 181.977 294.65 192.83" stroke="#C8C8D4" stroke-width="2"/>
<path d="M292.5 217.04L287.88 218.15" stroke="#9CACB5" stroke-width="2"/>
<path d="M287.88 218.15L281.5 218.54" stroke="#6A6A71" stroke-width="2"/>
<path d="M280 218.29L278.71 217.5" stroke="#9097A2" stroke-width="2"/>
<path d="M278.71 217.5L277.96 216" stroke="#7C7F85" stroke-width="2"/>
<path d="M277.96 216C277.2 204.567 275.367 193.317 272.46 182.25" stroke="#C8C8D4" stroke-width="2"/>
<path d="M274.25 109.29L271.25 110.04" stroke="#5B637E" stroke-width="2"/>
<path d="M271.25 110.04L267.25 110.29" stroke="#9FAACA" stroke-width="2"/>
<path d="M267.25 110.29C266.023 110.07 264.857 110.21 263.75 110.71" stroke="#C5CDEF" stroke-width="2"/>
<path d="M284.25 114.71L277.91 115.64" stroke="#6A6A71" stroke-width="2"/>
<path d="M277.91 115.64L272.44 115.47C272.26 115.463 272.097 115.417 271.95 115.33C269.79 114.017 269.557 112.253 271.25 110.04" stroke="#45474C" stroke-width="2"/>
<path d="M292.25 114.79C292.24 119.02 293.73 123.02 294.07 127.29C294.075 127.358 294.094 127.424 294.125 127.484C294.157 127.544 294.2 127.597 294.254 127.64C294.307 127.684 294.369 127.715 294.435 127.734C294.502 127.753 294.571 127.758 294.64 127.75C295.36 127.66 294.54 115.99 294.5 114.54" stroke="#C8C8D4" stroke-width="2"/>
<path d="M370.79 68C370.68 70.4 371.35 72.51 371.33 74.77C371.27 81.9567 371.473 89.1433 371.94 96.33C372.01 97.37 372.34 97.94 372.5 98.96" stroke="#B28A67" stroke-width="2"/>
<path d="M372.21 99.75C372.037 100.203 371.12 100.223 369.46 99.81C369.232 99.7537 368.991 99.7789 368.779 99.8811C368.567 99.9833 368.398 100.156 368.3 100.37L366.21 105" stroke="#9E725F" stroke-width="2"/>
<path d="M366.21 105C362.123 104.727 358.68 105.927 355.88 108.6" stroke="#644F3C" stroke-width="2"/>
<path d="M355.88 108.6C355.84 111.007 355.487 113.21 354.82 115.21C354.738 115.458 354.756 115.728 354.872 115.964C354.988 116.199 355.192 116.381 355.44 116.47C357.88 117.33 359.363 119.06 359.89 121.66C359.939 121.902 359.898 122.153 359.775 122.367C359.652 122.581 359.454 122.742 359.22 122.82L357.73 123.29C357.6 123.331 357.463 123.345 357.328 123.331C357.192 123.318 357.06 123.276 356.94 123.21C350.753 119.723 344.273 116.917 337.5 114.79" stroke="#766350" stroke-width="2"/>
<path d="M328.25 109.96C330.263 109.887 331.36 108.9 331.54 107" stroke="#E4A885" stroke-width="2"/>
<path d="M331.54 107C334.233 105.653 334.29 104.07 331.71 102.25" stroke="#644F3C" stroke-width="2"/>
<path d="M333.61 92.97L339.67 102.52C339.768 102.67 339.903 102.791 340.06 102.87C341.31 103.5 349.87 108.03 351.97 107.71C352.757 107.583 352.78 107.373 352.04 107.08C348.827 105.773 345.69 104.3 342.63 102.66C337.85 100.1 335.89 92.31 332.82 88.05C332.685 87.8561 332.621 87.6227 332.64 87.39C332.707 86.49 332.257 85.9433 331.29 85.75" stroke="#B28A67" stroke-width="2"/>
<path d="M347.75 61.29C348.82 62.86 352.48 66.07 354.8 65.8" stroke="#BFB2BA" stroke-width="2"/>
<path d="M354.8 65.8C357.833 67.3867 361.073 68.3833 364.52 68.79C366.153 68.9767 366.61 69.81 365.89 71.29C364.043 75.05 362.91 79.0133 362.49 83.18" stroke="#B28A67" stroke-width="2"/>
<path d="M362.49 83.18L359.66 94.69C359.6 94.9348 359.636 95.1933 359.76 95.4139C359.885 95.6346 360.088 95.801 360.33 95.88L364.74 97.3C364.9 97.352 365.071 97.3626 365.237 97.3307C365.403 97.2989 365.558 97.2257 365.687 97.1179C365.817 97.0101 365.917 96.8713 365.979 96.7143C366.041 96.5573 366.062 96.3873 366.04 96.22C365.62 92.92 364.927 89.7767 363.96 86.79" stroke="#BFB2BA" stroke-width="2"/>
<path d="M363.96 86.79C365.287 81.01 366.12 75.1633 366.46 69.25C366.472 69.0399 366.419 68.8316 366.308 68.6541C366.196 68.4766 366.033 68.3388 365.84 68.26L355.29 64" stroke="#B28A67" stroke-width="2"/>
<path d="M355.29 64L355.21 63.75" stroke="#BFB2BA" stroke-width="2"/>
<path d="M330.21 220.5L329.5 221.29" stroke="#848491" stroke-width="2"/>
<path d="M329.5 221.29L326.5 221.79" stroke="#AFB1BD" stroke-width="2"/>
<path d="M326.5 221.79C325.587 221.737 324.97 222.03 324.65 222.67C322.95 226.11 319.673 233.097 314.82 243.63C314.24 244.877 313.48 245.95 312.54 246.85C311.687 247.657 310.703 248.567 309.59 249.58" stroke="#B2B9D8" stroke-width="2"/>
<path d="M249.25 232.46C241.3 230.79 242.13 223.98 235.04 221.75" stroke="#7C7F85" stroke-width="2"/>
<path d="M232.5 218.46C238.12 219.4 241.96 222.087 244.02 226.52C244.7 227.973 245.81 228.927 247.35 229.38C266.93 235.053 286.313 240.683 305.5 246.27C311.52 248.03 312.52 243.06 314.46 239" stroke="#848491" stroke-width="2"/>
<path d="M317.04 233.25L320.24 226.36C320.325 226.173 320.351 225.964 320.314 225.762C320.276 225.56 320.177 225.374 320.03 225.23C319.21 224.417 318.2 223.937 317 223.79" stroke="#7C7F85" stroke-width="2"/>
<path d="M314.5 220.46L320.89 222.74C321.085 222.81 321.297 222.817 321.496 222.762C321.695 222.706 321.871 222.59 322 222.43C323.027 221.157 323.597 219.68 323.71 218" stroke="#848491" stroke-width="2"/>
<path d="M277.96 216L267.29 215" stroke="#707278" stroke-width="2"/>
<path d="M281 232.46C274.61 231.6 270.43 235.18 264.29 232" stroke="#838A95" stroke-width="2"/>
<path d="M278.71 217.5C277.037 218.24 275.777 219.41 274.93 221.01C274.851 221.157 274.736 221.282 274.598 221.375C274.459 221.467 274.299 221.524 274.134 221.54C273.968 221.556 273.802 221.53 273.649 221.466C273.497 221.401 273.363 221.3 273.26 221.17C271.58 219.07 270.8 216.78 267.54 217.25" stroke="#384146" stroke-width="2"/>
<path d="M294 223.71L292.31 225.01C292.228 225.073 292.162 225.155 292.118 225.249C292.075 225.343 292.056 225.447 292.062 225.551C292.067 225.656 292.099 225.757 292.152 225.848C292.206 225.938 292.281 226.014 292.37 226.07C292.817 226.337 292.907 226.737 292.64 227.27C292.566 227.418 292.529 227.582 292.533 227.747C292.536 227.913 292.58 228.075 292.66 228.22C293.207 229.187 293.923 229.807 294.81 230.08C294.996 230.136 295.162 230.245 295.287 230.395C295.411 230.544 295.489 230.727 295.51 230.92C295.83 233.68 298.65 234.57 300.88 235.6C301.078 235.691 301.301 235.715 301.514 235.668C301.727 235.621 301.919 235.506 302.06 235.34L304.29 232.75" stroke="#8FA0A8" stroke-width="2"/>
<path d="M309 234.46C306.58 234.533 304.753 235.477 303.52 237.29C303.435 237.416 303.38 237.558 303.358 237.708C303.335 237.858 303.347 238.01 303.391 238.154C303.435 238.298 303.511 238.43 303.613 238.54C303.715 238.65 303.84 238.736 303.98 238.79C307.34 240.123 310.36 239.443 313.04 236.75" stroke="#9CACB5" stroke-width="2"/>
<path d="M313.5 238.21C306.74 244.1 295.85 238.21 287.57 236.38C285.63 235.953 283.703 235.493 281.79 235" stroke="#9CACB5" stroke-width="2"/>
<path d="M281.21 234.25C281.923 233.523 281.853 232.927 281 232.46" stroke="#8FA0A8" stroke-width="2"/>
<path d="M281 232.46C282.173 229.587 282.493 226.6 281.96 223.5" stroke="#576F76" stroke-width="2"/>
<path d="M282 220.04C283.8 219.853 285.407 220.267 286.82 221.28C287.034 221.434 287.3 221.497 287.56 221.456C287.821 221.415 288.054 221.272 288.21 221.06C288.93 220.087 288.82 219.117 287.88 218.15" stroke="#324245" stroke-width="2"/>
<path d="M277.91 115.64C275.41 119.487 271.993 122.073 267.66 123.4C267.519 123.444 267.37 123.456 267.224 123.435C267.077 123.414 266.938 123.361 266.814 123.28C266.691 123.198 266.587 123.091 266.51 122.965C266.433 122.839 266.385 122.697 266.37 122.55C265.923 118.397 266.217 114.31 267.25 110.29" stroke="#AFB1BD" stroke-width="2"/>
<path d="M353.21 221.25C349.777 221.65 346.47 221.15 343.29 219.75" stroke="#9C888E" stroke-width="2"/>
<path d="M352.79 223.75C351.943 225.47 351.94 226.827 352.78 227.82C353.66 228.867 353.42 229.303 352.06 229.13C348.553 228.67 345.377 227.37 342.53 225.23" stroke="#A38C87" stroke-width="2"/>
<path d="M361.96 227.5L362.04 233" stroke="#AE9585" stroke-width="2"/>
<path d="M362.04 233L361.46 234.75" stroke="#92593A" stroke-width="2"/>
<path d="M361.46 234.75C357.47 235.55 352.52 234.85 348.96 236.75" stroke="#533B37" stroke-width="2"/>
<path d="M348.96 236.75C346.207 236.97 343.72 236.373 341.5 234.96" stroke="#A38C87" stroke-width="2"/>
<path d="M368.25 111.54C367.963 113.547 368.057 115.513 368.53 117.44C368.571 117.61 368.657 117.767 368.778 117.894C368.899 118.021 369.051 118.114 369.219 118.164C369.387 118.213 369.565 118.218 369.736 118.177C369.906 118.136 370.063 118.051 370.19 117.93L373 115.26" stroke="#766350" stroke-width="2"/>
<path d="M374.75 146.54L369.25 147.71" stroke="#33251A" stroke-width="2"/>
<path d="M369.25 147.71C369.02 146.14 366.84 130.63 366.65 130.54C366.628 130.53 366.604 130.526 366.58 130.529C366.556 130.532 366.533 130.543 366.513 130.559C366.493 130.575 366.477 130.596 366.466 130.621C366.455 130.646 366.449 130.673 366.45 130.7C366.623 136.493 367.14 142.247 368 147.96" stroke="#121515" stroke-width="2"/>
<path d="M368 147.96L367.5 148.54" stroke="#33251A" stroke-width="2"/>
<path d="M367.5 148.54C359.933 149.687 352.327 149.647 344.68 148.42" stroke="#443232" stroke-width="2"/>
<path d="M344.68 148.42C343.44 147.8 342.1 147.647 340.66 147.96" stroke="#4C3838" stroke-width="2"/>
<path d="M340.25 147.46L339.69 146.65C339.579 146.487 339.52 146.292 339.52 146.09L339.51 144.02C339.443 131.08 338.91 131.06 337.91 143.96C337.837 144.873 337.783 145.79 337.75 146.71" stroke="#121515" stroke-width="2"/>
<path d="M344.68 148.42C351.107 152.947 357.927 155.1 365.14 154.88C367 154.82 367.97 155.687 368.05 157.48L369.14 181.99" stroke="#6C4141" stroke-width="2"/>
<path d="M371.46 224.75C369.85 225.14 362.05 226.09 361.96 227.5" stroke="#AF9792" stroke-width="2"/>
<path d="M361.96 227.5L361.75 227.46" stroke="#73453A" stroke-width="2"/>
<path d="M356.39 209.93C353.82 201.8 353.19 196.26 356.24 187.59C356.323 187.358 356.32 187.106 356.23 186.88L353.63 180.32" stroke="#6C4141" stroke-width="2"/>
<path d="M341.46 228.75L341.5 234.96" stroke="#533B37" stroke-width="2"/>
<path d="M341.5 234.96L336.38 233.56" stroke="#848491" stroke-width="2"/>
<path d="M336.38 233.56L331.98 224.79" stroke="#616988" stroke-width="2"/>
<path d="M331.98 224.79C329.707 224.77 328.88 223.603 329.5 221.29" stroke="#5E616D" stroke-width="2"/>
<path d="M381.79 104.75C381.29 106.003 381.397 106.95 382.11 107.59" stroke="#7F6B70" stroke-width="2"/>
<path d="M376.25 111.79L368.5 111.46" stroke="#9E725F" stroke-width="2"/>
<path d="M368.5 111.46C371.547 111.34 372.87 109.98 372.47 107.38C371.95 103.96 368.54 105.27 366.21 105" stroke="#3A2424" stroke-width="2"/>
<path d="M363.96 86.79L362.49 83.18" stroke="#A89EA9" stroke-width="2"/>
<path d="M394.71 91.75L396.5 102.71" stroke="#B28A67" stroke-width="2"/>
<path d="M396.5 102.71L390.75 103.54" stroke="#928277" stroke-width="2"/>
<path d="M368.5 111.46L368.25 111.54" stroke="#644F3C" stroke-width="2"/>
<path d="M368.25 111.54C364.83 112.073 361.407 112.16 357.98 111.8C357.809 111.782 357.646 111.722 357.506 111.626C357.366 111.53 357.254 111.4 357.18 111.25L355.88 108.6" stroke="#121515" stroke-width="2"/>
<path d="M370.71 67.5C367.13 61.6133 361.977 57.96 355.25 56.54" stroke="#644F3C" stroke-width="2"/>
<path d="M355.25 56.54L354.41 56.38" stroke="#6B7480" stroke-width="2"/>
<path d="M354.41 56.38C352.42 52.5 356.03 50.84 357.57 47.67C357.638 47.5278 357.74 47.4037 357.867 47.3081C357.994 47.2124 358.142 47.1479 358.3 47.12C360.6 46.7267 362.043 45.3233 362.63 42.91C362.682 42.6954 362.661 42.467 362.57 42.26C361.457 39.7867 359.917 39.52 357.95 41.46C357.852 41.5575 357.734 41.6337 357.604 41.6836C357.473 41.7336 357.332 41.7562 357.19 41.75C354.917 41.6167 352.857 40.9033 351.01 39.61C350.902 39.5339 350.781 39.4798 350.654 39.4506C350.527 39.4214 350.396 39.4178 350.27 39.44C346.33 40.0733 345.637 39.69 348.19 38.29C348.421 38.1632 348.593 37.9502 348.668 37.6973C348.743 37.4445 348.715 37.1723 348.59 36.94L347.08 34.1C347.003 33.9567 346.893 33.8343 346.758 33.7434C346.624 33.6524 346.469 33.5956 346.307 33.5778C346.146 33.5601 345.983 33.582 345.831 33.6416C345.68 33.7012 345.546 33.7968 345.44 33.92C343.893 35.7533 341.793 37.23 339.14 38.35C338.12 38.7833 338.067 39.2867 338.98 39.86C339.181 39.9893 339.418 40.0425 339.65 40.01L341.9 39.69C342.012 39.6745 342.127 39.6895 342.233 39.7334C342.338 39.7773 342.43 39.8486 342.5 39.94C342.98 40.59 341.81 40.8 341.34 40.74C340.813 40.6667 340.28 40.6767 339.74 40.77C339.486 40.8165 339.26 40.9585 339.107 41.1668C338.955 41.3751 338.888 41.6339 338.92 41.89C339.02 42.65 339.03 43.6767 338.95 44.97C338.59 50.8567 341.38 54.18 347.32 54.94C348.213 55.0533 348.343 55.49 347.71 56.25" stroke="#3A2424" stroke-width="2"/>
<path d="M347.71 56.25L345.25 56.79" stroke="#6B7480" stroke-width="2"/>
<path d="M345.25 56.79C332.457 61.01 327.583 69.89 330.63 83.43C330.67 83.59 330.55 84.27 330.5 84.46" stroke="#644F3C" stroke-width="2"/>
<path d="M355.25 56.54C357.2 58.04 355.96 62.05 355.21 63.75" stroke="#CFC3BB" stroke-width="2"/>
<path d="M355.21 63.75C354.823 64.0167 354.437 64 354.05 63.7C352.183 62.2467 350.083 61.4433 347.75 61.29" stroke="#C6D7FE" stroke-width="2"/>
<path d="M347.75 61.29C346.23 60.15 345.397 58.65 345.25 56.79" stroke="#CFC3BB" stroke-width="2"/>
<path d="M355.29 64L354.8 65.8" stroke="#A89EA9" stroke-width="2"/>
<path d="M311.5 241.79C310.147 241.897 308.883 242.3 307.71 243" stroke="#9CACB5" stroke-width="2"/>
<path d="M303.32 242.82C299.06 240.88 294.62 239.62 290 239.04" stroke="#9CACB5" stroke-width="2"/>
<path d="M264.36 228.11L264.29 232" stroke="#3F4652" stroke-width="2"/>
<path d="M264.29 232C264.397 233.687 265.05 234.603 266.25 234.75C269.797 235.177 274.783 235.01 281.21 234.25" stroke="#777784" stroke-width="2"/>
<path d="M281.21 234.25L281.79 235" stroke="#4B5C65" stroke-width="2"/>
<path d="M281.79 235C282.45 237.51 287.81 238.53 290 239.04" stroke="#848491" stroke-width="2"/>
<path d="M290 239.04C293.9 240.55 299.11 243.26 303.32 242.82" stroke="#4B5C65" stroke-width="2"/>
<path d="M303.32 242.82L307.71 243" stroke="#848491" stroke-width="2"/>
<path d="M307.71 243C309.423 243.707 310.687 243.303 311.5 241.79" stroke="#4B5C65" stroke-width="2"/>
<path d="M311.5 241.79C312.94 241.29 313.703 240.277 313.79 238.75" stroke="#848491" stroke-width="2"/>
<path d="M331.98 224.79L331.5 225.04" stroke="#8C96B3" stroke-width="2"/>
<path d="M331.5 225.04C329.32 224.5 328.71 227.03 326 225.46" stroke="#AFB1BD" stroke-width="2"/>
<path d="M326 225.46C325.867 224.187 326.033 222.963 326.5 221.79" stroke="#8C96B3" stroke-width="2"/>
<path d="M326 225.46C324.05 225.41 325.39 237.68 325.64 240.41" stroke="#B2B9D8" stroke-width="2"/>
<path d="M325.64 240.41C324.04 241.837 323.327 243.68 323.5 245.94" stroke="#6B728A" stroke-width="2"/>
<path d="M348.96 236.75L360.21 240.25" stroke="#848491" stroke-width="2"/>
<path d="M338.25 236.46L336 235.96" stroke="#7C7F85" stroke-width="2"/>
<path d="M374.65 232.04C372.077 232.773 371.03 234.213 371.51 236.36C371.548 236.529 371.541 236.705 371.49 236.871C371.44 237.037 371.347 237.186 371.221 237.305C371.095 237.424 370.94 237.509 370.771 237.55C370.603 237.591 370.427 237.587 370.26 237.54C367.173 236.653 364.433 235.14 362.04 233" stroke="#CDAB92" stroke-width="2"/>
<path d="M392.54 243.5L393.04 247.25" stroke="#725144" stroke-width="2"/>
<path d="M387.75 249.54L389.36 248.7C389.466 248.644 389.558 248.565 389.629 248.468C389.7 248.371 389.748 248.259 389.77 248.14C389.92 247.35 383.92 248.07 382.81 247.97C377.24 247.48 374.54 242.86 369.07 241.97C368.21 241.823 367.353 241.643 366.5 241.43C362.12 240.303 361.977 240.703 366.07 242.63C367.063 243.097 368.12 243.433 369.24 243.64C369.423 243.679 369.592 243.765 369.73 243.89C370.443 244.543 371.31 244.827 372.33 244.74C372.563 244.721 372.796 244.781 372.99 244.91C376.883 247.617 381.22 249.16 386 249.54" stroke="#92593A" stroke-width="2"/>
<path d="M361.46 243C361.533 241.9 361.117 240.983 360.21 240.25" stroke="#C3A294" stroke-width="2"/>
<path d="M360.21 240.25L361.46 234.75" stroke="#725144" stroke-width="2"/>
<path d="M369.25 147.71L368 147.96" stroke="#211106" stroke-width="2"/>
<path d="M374.71 155.25C372.89 154.93 371.05 154.987 369.19 155.42C369.05 155.452 368.904 155.453 368.763 155.424C368.622 155.395 368.489 155.335 368.374 155.25C368.258 155.164 368.162 155.055 368.092 154.929C368.022 154.803 367.981 154.664 367.97 154.52L367.5 148.54" stroke="#532E23" stroke-width="2"/>
<path d="M336.38 233.56L336 235.96" stroke="#B2B9D8" stroke-width="2"/>
<path d="M336 235.96C334.273 235.547 332.537 235.477 330.79 235.75" stroke="#5A647C" stroke-width="2"/>
<path d="M410.96 212.25C408.72 212.797 406.987 212.763 405.76 212.15" stroke="#AFB1BD" stroke-width="2"/>
<path d="M406.79 91.5C406.98 93.35 400.88 92.91 400.72 94.4C400.71 94.5274 400.746 94.6538 400.822 94.7552C400.897 94.8567 401.007 94.926 401.13 94.95C402.583 95.25 402.663 95.7133 401.37 96.34C401.228 96.4076 401.104 96.5101 401.008 96.6388C400.913 96.7675 400.848 96.9188 400.82 97.08C400.673 98 401.237 98.2967 402.51 97.97C403.277 97.7767 403.977 97.6767 404.61 97.67C406.283 97.6567 406.303 97.83 404.67 98.19L401.74 98.83C401.595 98.8627 401.459 98.9273 401.342 99.0192C401.225 99.111 401.13 99.2277 401.064 99.3609C400.998 99.494 400.963 99.6402 400.96 99.7888C400.958 99.9374 400.988 100.085 401.05 100.22L401.52 101.26C401.587 101.415 401.692 101.55 401.826 101.652C401.959 101.753 402.115 101.818 402.28 101.84C403.32 101.99 406.74 102.37 406.54 103.5" stroke="#9E725F" stroke-width="2"/>
<path d="M400.5 104.54C399.04 104.207 397.707 103.597 396.5 102.71" stroke="#A99688" stroke-width="2"/>
<path d="M354.41 56.38C354.05 59.5667 352.397 60.7533 349.45 59.94C349.242 59.8815 349.056 59.7553 348.92 59.58C348.193 58.62 347.79 57.51 347.71 56.25" stroke="#A598A3" stroke-width="2"/>
<path d="M331.5 225.04C328.19 227.81 330.09 232.15 330.79 235.75" stroke="#B2B9D8" stroke-width="2"/>
<path d="M330.79 235.75L331 236.29" stroke="#7C7F85" stroke-width="2"/>
<path d="M331 236.29C331.853 240.97 332.74 245.62 333.66 250.24C334.3 253.46 333.213 255.17 330.4 255.37C330.15 255.39 329.902 255.311 329.71 255.15C324.85 251.26 326.77 245.56 325.64 240.41" stroke="#8D8D94" stroke-width="2"/>
<path d="M337.44 263.18C337.78 261.947 338.543 261.007 339.73 260.36C339.954 260.244 340.123 260.047 340.2 259.81C343.4 250.49 340.5 240.47 331 236.29" stroke="#353838" stroke-width="2"/>
<path d="M411.88 223.06L407.75 224.04" stroke="#AFB1BD" stroke-width="2"/>
<path d="M407.75 224.04L407.29 224.01C407.085 223.996 406.88 224.044 406.703 224.15C406.526 224.255 406.385 224.412 406.3 224.6C400.8 237.033 397.303 244.687 395.81 247.56C395.083 248.947 393.563 250.08 391.25 250.96" stroke="#B2B9D8" stroke-width="2"/>
<path d="M385.75 250.21L386 249.54" stroke="#C3A294" stroke-width="2"/>
<path d="M386 249.54H387.75" stroke="#A38C87" stroke-width="2"/>
<path d="M387.75 249.54C389.863 249.593 391.627 248.83 393.04 247.25" stroke="#C3A294" stroke-width="2"/>
<path d="M393.04 247.25C393.973 246.37 394.53 245.287 394.71 244" stroke="#848491" stroke-width="2"/>
<path d="M409.25 99.71C408.103 100.703 407.603 101.953 407.75 103.46" stroke="#3A2424" stroke-width="2"/>
<path d="M407.21 84L394.15 85.14" stroke="#9D7052" stroke-width="2"/>
<path d="M413.25 226.96C411.6 227.22 409.01 229.17 407.96 227.25" stroke="#9FAACA" stroke-width="2"/>
<path d="M407.96 227.25C407.613 226.19 407.543 225.12 407.75 224.04" stroke="#8C96B3" stroke-width="2"/>
<path d="M407.96 227.25C405.84 227.57 407.13 239.16 407.21 241.25" stroke="#A2B2E5" stroke-width="2"/>
<path d="M407.21 241.25L405.4 247.86" stroke="#6B728A" stroke-width="2"/>
<path d="M407.46 83.25L393.54 82.75" stroke="#5A321C" stroke-width="2"/>
<path d="M413.5 227.04C410.12 229.45 412.06 234.97 412.96 238.25" stroke="#A2B2E5" stroke-width="2"/>
<path d="M412.96 238.25L413.04 238.75" stroke="#6D7893" stroke-width="2"/>
<path d="M413.04 238.75C413.933 243.437 414.827 248.097 415.72 252.73C416.247 255.503 415.137 257.027 412.39 257.3C412.146 257.326 411.896 257.254 411.69 257.1C409.223 255.24 407.977 252.853 407.95 249.94C407.91 246.34 407.53 244.23 407.21 241.25" stroke="#7E86A1" stroke-width="2"/>
<path d="M405.79 79.25C402.203 80.57 398.57 80.5733 394.89 79.26" stroke="#5A321C" stroke-width="2"/>
<path d="M419.04 238C417.33 237.94 414.11 236.75 412.96 238.25" stroke="#5A647C" stroke-width="2"/>
<path d="M418.25 265.04C418.817 265.167 419.187 265.05 419.36 264.69C419.573 264.25 419.733 263.983 419.84 263.89C426.76 257.84 422.54 240.31 413.04 238.75" stroke="#353838" stroke-width="2"/>
<path d="M273.67 35.65C274.62 34.21 267.21 34.57 273.13 35.87C273.233 35.8932 273.34 35.8845 273.437 35.8451C273.533 35.8057 273.615 35.7376 273.67 35.65Z" stroke="#926E5E" stroke-width="2"/>
<path d="M272.03 37.88C271.25 38.4733 271.363 38.8833 272.37 39.11C272.545 39.1477 272.728 39.1269 272.889 39.0509C273.05 38.9749 273.18 38.848 273.26 38.69C273.467 38.27 273.31 37.9633 272.79 37.77C272.665 37.7212 272.529 37.7057 272.396 37.725C272.262 37.7443 272.137 37.7977 272.03 37.88Z" stroke="#805A49" stroke-width="2"/>
<path d="M279.6 40.43L279.78 40.14C279.836 40.0519 279.869 39.9516 279.877 39.8478C279.885 39.7439 279.868 39.6397 279.826 39.5441C279.785 39.4485 279.721 39.3645 279.64 39.2993C279.558 39.2341 279.462 39.1897 279.36 39.17C278.207 38.9567 278.113 39.39 279.08 40.47C279.115 40.5081 279.157 40.538 279.205 40.5572C279.253 40.5763 279.304 40.5843 279.354 40.5804C279.405 40.5765 279.453 40.5609 279.496 40.5348C279.539 40.5087 279.574 40.4728 279.6 40.43Z" stroke="#805A49" stroke-width="2"/>
<path d="M274.19 45.15C273.73 44.8567 273.27 44.7267 272.81 44.76C271.33 44.8533 271.243 45.2533 272.55 45.96L274.81 47.18C274.977 47.2697 275.167 47.3098 275.357 47.2957C275.546 47.2815 275.728 47.2136 275.88 47.1C278.027 45.5133 277.687 44.91 274.86 45.29C274.628 45.3225 274.391 45.273 274.19 45.15Z" stroke="#F4CDB8" stroke-width="2"/>
<path d="M262.514 43.0773C262.949 42.9077 263.241 42.4251 263.327 41.7356C263.412 41.0461 263.284 40.2062 262.97 39.4007C262.814 39.0018 262.618 38.6234 262.392 38.287C262.166 37.9506 261.914 37.6629 261.652 37.4402C261.39 37.2176 261.122 37.0643 260.864 36.9892C260.605 36.9142 260.361 36.9187 260.146 37.0027C259.711 37.1723 259.419 37.6549 259.333 38.3444C259.248 39.0338 259.376 39.8738 259.69 40.6793C259.846 41.0782 260.042 41.4566 260.268 41.793C260.494 42.1294 260.746 42.4171 261.008 42.6398C261.27 42.8624 261.538 43.0157 261.797 43.0908C262.055 43.1658 262.299 43.1613 262.514 43.0773Z" stroke="#805A49" stroke-width="2"/>
<path d="M348.38 42.4L349.07 42.5C349.863 42.6267 350.09 42.3267 349.75 41.6C349.39 40.84 348.843 40.72 348.11 41.24C347.25 41.8467 347.34 42.2333 348.38 42.4Z" stroke="#3A2424" stroke-width="2"/>
<path d="M342.29 42.75C342.29 42.5405 342.207 42.3395 342.059 42.1914C341.91 42.0432 341.709 41.96 341.5 41.96C341.29 41.96 341.089 42.0432 340.941 42.1914C340.793 42.3395 340.71 42.5405 340.71 42.75C340.71 42.9595 340.793 43.1605 340.941 43.3086C341.089 43.4568 341.29 43.54 341.5 43.54C341.709 43.54 341.91 43.4568 342.059 43.3086C342.207 43.1605 342.29 42.9595 342.29 42.75Z" stroke="#3A2424" stroke-width="2"/>
<path d="M344.94 50.81C347.307 51.5033 348.887 50.8633 349.68 48.89C350.127 47.7767 349.76 47.3233 348.58 47.53L344.28 48.29C344.121 48.3179 343.971 48.3839 343.844 48.4822C343.716 48.5805 343.613 48.7083 343.546 48.8547C343.478 49.0011 343.447 49.1617 343.454 49.3228C343.462 49.4839 343.509 49.6408 343.59 49.78C343.89 50.2933 344.34 50.6367 344.94 50.81Z" stroke="#AF9792" stroke-width="2"/>
<path d="M253.27 57.19C252.21 57.3233 251.177 57.5567 250.17 57.89C247.097 58.9167 247.177 59.5667 250.41 59.84C251.803 59.9533 252.837 59.9333 253.51 59.78C255.423 59.3267 255.577 58.5233 253.97 57.37C253.765 57.2221 253.514 57.1578 253.27 57.19Z" stroke="#576F76" stroke-width="2"/>
<path d="M344.86 74.87C343.56 72.4167 341.903 70.25 339.89 68.37C339.846 68.3291 339.796 68.2974 339.743 68.2768C339.689 68.2562 339.634 68.2471 339.58 68.25L339.41 68.26C339.177 68.2667 339.133 68.3733 339.28 68.58C341.07 71.11 343.17 73.41 344.28 76.29C346.107 81.05 347.637 85.93 348.87 90.93C348.926 91.1619 348.898 91.4064 348.79 91.6191C348.681 91.8318 348.501 91.9989 348.28 92.09C345.313 93.31 345.487 93.6867 348.8 93.22C350.51 92.97 356.07 94.85 358.04 95.36C358.97 95.6 359.33 95.27 358.47 94.96C356.043 94.1 353.583 93.2167 351.09 92.31C350.941 92.254 350.807 92.1633 350.699 92.0451C350.591 91.9269 350.513 91.7847 350.47 91.63C349.1 86.57 346.38 80.25 346.35 75.1C346.343 73.9067 346.097 72.7633 345.61 71.67C344.977 70.2367 344.77 70.2967 344.99 71.85C345.09 72.5433 345.323 73.28 345.69 74.06C345.95 74.62 345.887 74.97 345.5 75.11C345.381 75.1546 345.25 75.1548 345.132 75.1106C345.014 75.0664 344.917 74.9808 344.86 74.87Z" stroke="#B28A67" stroke-width="2"/>
<path d="M356.01 119.06C353 119.2 359.23 121.69 356.74 119.34C356.645 119.248 356.531 119.176 356.406 119.128C356.281 119.08 356.146 119.057 356.01 119.06Z" stroke="#9E725F" stroke-width="2"/>
<path d="M278.16 176.39C277.5 179.33 277.1 181.46 277.8 184.61C279.08 190.38 278.54 195.21 280.16 202.15C280.17 202.193 280.19 202.233 280.22 202.266C280.25 202.299 280.287 202.325 280.33 202.34C280.623 202.447 280.73 202.253 280.65 201.76C279.943 197.38 279.557 192.977 279.49 188.55C279.45 185.98 278.67 183.79 278.23 181.28C278.197 181.104 278.218 180.92 278.29 180.75C279.59 177.42 279.23 175.45 277.12 172.34C274.73 168.83 272.49 161.84 272.27 158.5C271.87 152.29 270.63 146.25 270.28 140.05C270.22 138.93 270.067 137.827 269.82 136.74C269.247 134.233 269.073 134.26 269.3 136.82C269.853 142.967 270.413 149.113 270.98 155.26C271.633 162.247 273.987 169.043 278.04 175.65C278.174 175.875 278.217 176.14 278.16 176.39Z" stroke="#C8C8D4" stroke-width="2"/>
<path d="M278.61 26.85L270.04 29.75L269.54 30.75C269.567 30.6167 269.567 30.5 269.54 30.4C269.528 30.3416 269.504 30.2864 269.468 30.2385C269.433 30.1905 269.387 30.1509 269.335 30.1223C269.282 30.0937 269.224 30.0769 269.165 30.0731C269.105 30.0692 269.046 30.0784 268.99 30.1C264.857 31.7467 261.123 34.0467 257.79 37C252.97 22.37 270.04 18.56 278.61 26.85Z" fill="#C89D77"/>
<path d="M370.71 67.5C367.13 61.6133 361.977 57.96 355.25 56.54L354.41 56.38C352.42 52.5 356.03 50.84 357.57 47.67C357.638 47.5278 357.74 47.4037 357.867 47.3081C357.994 47.2124 358.142 47.1479 358.3 47.12C360.6 46.7267 362.043 45.3233 362.63 42.91C362.682 42.6954 362.661 42.467 362.57 42.26C361.457 39.7867 359.917 39.52 357.95 41.46C357.852 41.5575 357.734 41.6337 357.604 41.6836C357.473 41.7336 357.332 41.7562 357.19 41.75C354.917 41.6167 352.857 40.9033 351.01 39.61C350.902 39.5339 350.781 39.4798 350.654 39.4506C350.527 39.4214 350.396 39.4178 350.27 39.44C346.33 40.0733 345.637 39.69 348.19 38.29C348.421 38.1632 348.593 37.9502 348.668 37.6973C348.743 37.4445 348.715 37.1723 348.59 36.94L347.08 34.1C347.003 33.9567 346.893 33.8343 346.758 33.7434C346.624 33.6524 346.469 33.5956 346.307 33.5778C346.146 33.5601 345.983 33.582 345.831 33.6416C345.68 33.7012 345.546 33.7968 345.44 33.92C343.893 35.7533 341.793 37.23 339.14 38.35C338.12 38.7833 338.067 39.2867 338.98 39.86C339.181 39.9893 339.418 40.0425 339.65 40.01L341.9 39.69C342.012 39.6745 342.127 39.6895 342.233 39.7334C342.338 39.7773 342.43 39.8486 342.5 39.94C342.98 40.59 341.81 40.8 341.34 40.74C340.813 40.6667 340.28 40.6767 339.74 40.77C339.486 40.8165 339.26 40.9585 339.107 41.1668C338.955 41.3751 338.888 41.6339 338.92 41.89C339.02 42.65 339.03 43.6767 338.95 44.97C338.59 50.8567 341.38 54.18 347.32 54.94C348.213 55.0533 348.343 55.49 347.71 56.25L345.25 56.79C332.457 61.01 327.583 69.89 330.63 83.43C330.67 83.59 330.55 84.27 330.5 84.46C326 84.1933 321.52 83.6667 317.06 82.88C310.32 81.7 305.14 74.96 312.42 69.85C312.573 69.7419 312.692 69.5938 312.764 69.4223C312.837 69.2508 312.86 69.0629 312.83 68.88C312.07 63.8 313.757 59.7833 317.89 56.83C317.963 56.7786 318.017 56.7049 318.044 56.6201C318.071 56.5353 318.069 56.444 318.04 56.36L317.94 56.06C317.935 56.0418 317.921 56.0283 317.898 56.0203C317.875 56.0124 317.844 56.0103 317.807 56.0141C317.77 56.0179 317.728 56.0275 317.684 56.0423C317.64 56.0571 317.594 56.0768 317.55 56.1C314.423 57.7333 312.597 60.31 312.07 63.83C311.99 64.4 311.44 64.4 311.46 63.8C311.533 60.14 313.123 57.5533 316.23 56.04C317.4 55.47 318.96 55.76 320.24 54.94C320.409 54.8313 320.541 54.6749 320.619 54.4912C320.698 54.3075 320.719 54.105 320.68 53.91C320.18 51.41 319.24 48.78 320.45 46.43C322.52 42.43 327.29 39.9 331.15 38.46C331.277 38.4125 331.393 38.3402 331.49 38.2474C331.588 38.1546 331.666 38.0433 331.72 37.92L335.82 28.47C335.922 28.2349 336.11 28.0478 336.345 27.9473C336.579 27.8468 336.842 27.8406 337.08 27.93C340.167 29.07 342.98 28.92 345.52 27.48C351.93 23.85 358.81 28.7 362.32 34.02C362.431 34.1892 362.592 34.3188 362.78 34.39C366.573 35.9233 367.917 38.7 366.81 42.72C366.683 43.18 366.52 43.1933 366.32 42.76C366.267 42.64 366.24 42.47 366.24 42.25C366.25 41.7 364.37 33.97 363.54 36.21C363.508 36.2924 363.494 36.3802 363.497 36.4679C363.501 36.5556 363.522 36.6414 363.56 36.72C364.827 39.2867 365.43 42.4967 365.37 46.35C365.357 47.4167 365.917 47.62 367.05 46.96C367.243 46.8437 367.47 46.7978 367.69 46.83C379.49 48.43 374.59 59.59 370.71 67.5ZM337.72 30.34C338.14 30.24 338.45 30.0233 338.65 29.69C339.177 28.8367 338.97 28.59 338.03 28.95L336.6 29.5C336.369 29.5881 336.179 29.7583 336.067 29.978C335.954 30.1977 335.927 30.4513 335.99 30.69C336.197 31.4767 336.587 31.4867 337.16 30.72C337.296 30.5322 337.494 30.3978 337.72 30.34Z" fill="black"/>
<path d="M281.5 34.54C281.053 34.06 280.54 33.88 279.96 34C278.73 30.96 273.19 30.07 270.04 29.75L278.61 26.85C282.73 26.96 286.86 24.95 290.52 27.73C295.48 31.52 283.25 34.04 281.5 34.54Z" fill="#B16F47"/>
<path d="M270.04 29.75C273.19 30.07 278.73 30.96 279.96 34C280.693 34.9067 280.943 35.9067 280.71 37L279.02 36.55C278.06 36.2967 277.927 36.5233 278.62 37.23C279.113 37.7367 279.81 37.91 280.71 37.75C281.64 44.5 281.31 49.38 274.74 51.41C274.537 51.4732 274.358 51.5992 274.231 51.7698C274.103 51.9404 274.033 52.147 274.03 52.36C274.017 53.8667 274.317 55.1933 274.93 56.34C274.663 58.26 273.553 59.1333 271.6 58.96C270.94 49.48 269.49 41.47 269.54 30.75L270.04 29.75ZM273.67 35.65C274.62 34.21 267.21 34.57 273.13 35.87C273.233 35.8932 273.34 35.8845 273.437 35.8451C273.533 35.8057 273.615 35.7376 273.67 35.65ZM272.03 37.88C271.25 38.4733 271.363 38.8833 272.37 39.11C272.545 39.1477 272.728 39.1269 272.889 39.0509C273.05 38.9749 273.18 38.848 273.26 38.69C273.467 38.27 273.31 37.9633 272.79 37.77C272.665 37.7212 272.529 37.7057 272.396 37.725C272.262 37.7443 272.137 37.7977 272.03 37.88ZM279.6 40.43L279.78 40.14C279.836 40.0519 279.869 39.9516 279.877 39.8478C279.885 39.7439 279.868 39.6397 279.826 39.5441C279.785 39.4485 279.721 39.3645 279.639 39.2993C279.558 39.2341 279.462 39.1897 279.36 39.17C278.207 38.9567 278.113 39.39 279.08 40.47C279.115 40.5081 279.157 40.538 279.205 40.5572C279.253 40.5763 279.304 40.5843 279.354 40.5804C279.405 40.5765 279.453 40.5609 279.496 40.5348C279.539 40.5087 279.574 40.4728 279.6 40.43ZM274.19 45.15C273.73 44.8567 273.27 44.7267 272.81 44.76C271.33 44.8533 271.243 45.2533 272.55 45.96L274.81 47.18C274.978 47.2697 275.167 47.3098 275.357 47.2957C275.546 47.2815 275.728 47.2136 275.88 47.1C278.027 45.5133 277.687 44.91 274.86 45.29C274.628 45.3225 274.391 45.273 274.19 45.15Z" fill="#FFB392"/>
<path d="M269.54 30.75C269.49 41.47 270.94 49.48 271.6 58.96C270.407 62.6 267.873 64.0433 264 63.29C261.847 62.61 260.457 61.1967 259.83 59.05C259.778 58.8557 259.662 58.6833 259.5 58.56C258.213 57.5067 257.463 56.14 257.25 54.46C258.143 53.88 258.547 53.06 258.46 52C258.873 51.2 258.887 50.38 258.5 49.54L257.79 37C261.123 34.0467 264.857 31.7467 268.99 30.1C269.046 30.0784 269.105 30.0692 269.165 30.0731C269.224 30.0769 269.282 30.0937 269.335 30.1223C269.387 30.1509 269.433 30.1905 269.468 30.2385C269.503 30.2864 269.528 30.3416 269.54 30.4C269.567 30.5 269.567 30.6167 269.54 30.75ZM262.514 43.0773C262.949 42.9077 263.241 42.4251 263.327 41.7356C263.412 41.0461 263.284 40.2062 262.97 39.4007C262.814 39.0018 262.618 38.6234 262.392 38.287C262.166 37.9506 261.914 37.6629 261.652 37.4402C261.39 37.2176 261.122 37.0643 260.863 36.9892C260.605 36.9142 260.361 36.9187 260.146 37.0027C259.711 37.1723 259.419 37.6549 259.333 38.3444C259.248 39.0339 259.376 39.8738 259.69 40.6793C259.846 41.0782 260.042 41.4566 260.268 41.793C260.494 42.1294 260.746 42.4171 261.008 42.6398C261.27 42.8624 261.538 43.0157 261.797 43.0908C262.055 43.1658 262.299 43.1613 262.514 43.0773Z" fill="black"/>
<path d="M354.41 56.38C354.05 59.5667 352.397 60.7533 349.45 59.94C349.242 59.8815 349.056 59.7553 348.92 59.58C348.193 58.62 347.79 57.51 347.71 56.25C348.343 55.49 348.213 55.0533 347.32 54.94C341.38 54.18 338.59 50.8567 338.95 44.97C339.03 43.6767 339.02 42.65 338.92 41.89C338.888 41.6339 338.955 41.3751 339.107 41.1668C339.26 40.9585 339.486 40.8165 339.74 40.77C340.28 40.6767 340.813 40.6667 341.34 40.74C341.81 40.8 342.98 40.59 342.5 39.94C342.43 39.8486 342.338 39.7773 342.233 39.7334C342.127 39.6895 342.012 39.6745 341.9 39.69L339.65 40.01C339.418 40.0425 339.181 39.9893 338.98 39.86C338.067 39.2867 338.12 38.7833 339.14 38.35C341.793 37.23 343.893 35.7533 345.44 33.92C345.546 33.7968 345.68 33.7012 345.831 33.6416C345.983 33.582 346.146 33.5601 346.307 33.5778C346.469 33.5956 346.624 33.6524 346.758 33.7434C346.893 33.8343 347.003 33.9567 347.08 34.1L348.59 36.94C348.715 37.1723 348.743 37.4445 348.668 37.6973C348.593 37.9502 348.421 38.1632 348.19 38.29C345.637 39.69 346.33 40.0733 350.27 39.44C350.396 39.4178 350.527 39.4214 350.654 39.4506C350.781 39.4798 350.902 39.5339 351.01 39.61C352.857 40.9033 354.917 41.6167 357.19 41.75C357.332 41.7562 357.473 41.7336 357.604 41.6836C357.734 41.6337 357.852 41.5575 357.95 41.46C359.917 39.52 361.457 39.7867 362.57 42.26C362.661 42.467 362.682 42.6954 362.63 42.91C362.043 45.3233 360.6 46.7267 358.3 47.12C358.142 47.1479 357.994 47.2124 357.867 47.3081C357.74 47.4037 357.638 47.5278 357.57 47.67C356.03 50.84 352.42 52.5 354.41 56.38ZM348.38 42.4L349.07 42.5C349.863 42.6267 350.09 42.3267 349.75 41.6C349.39 40.84 348.843 40.72 348.11 41.24C347.25 41.8467 347.34 42.2333 348.38 42.4ZM342.29 42.75C342.29 42.5405 342.207 42.3395 342.059 42.1914C341.91 42.0432 341.709 41.96 341.5 41.96C341.29 41.96 341.09 42.0432 340.941 42.1914C340.793 42.3395 340.71 42.5405 340.71 42.75C340.71 42.9595 340.793 43.1605 340.941 43.3086C341.09 43.4568 341.29 43.54 341.5 43.54C341.709 43.54 341.91 43.4568 342.059 43.3086C342.207 43.1605 342.29 42.9595 342.29 42.75ZM344.94 50.81C347.307 51.5033 348.887 50.8633 349.68 48.89C350.127 47.7767 349.76 47.3233 348.58 47.53L344.28 48.29C344.121 48.3179 343.971 48.3839 343.843 48.4822C343.716 48.5805 343.613 48.7083 343.546 48.8547C343.478 49.0011 343.446 49.1617 343.454 49.3228C343.462 49.4839 343.508 49.6408 343.59 49.78C343.89 50.2933 344.34 50.6367 344.94 50.81Z" fill="#744747"/>
<path d="M281.5 34.54C281.96 37.79 283.06 46.22 285.21 48.58C285.57 48.9733 285.907 49.3933 286.22 49.84C286.96 50.88 287.27 50.7667 287.15 49.5C287.117 49.1267 286.943 48.7633 286.63 48.41C284.837 46.4233 284.867 46.0533 286.72 47.3C289.84 49.4 288.4 54 286 55.88C285.46 56.3 285.28 56.87 285.21 57.5L283.29 60.26C278.59 63.88 275.803 62.5733 274.93 56.34C274.317 55.1933 274.017 53.8667 274.03 52.36C274.033 52.147 274.103 51.9404 274.231 51.7698C274.358 51.5992 274.537 51.4733 274.74 51.41C281.31 49.38 281.64 44.5 280.71 37.75V37C280.943 35.9067 280.693 34.9067 279.96 34C280.54 33.88 281.053 34.06 281.5 34.54Z" fill="black"/>
<path d="M273.13 35.87C267.21 34.57 274.62 34.21 273.67 35.65C273.615 35.7376 273.533 35.8057 273.437 35.8451C273.34 35.8845 273.233 35.8932 273.13 35.87Z" fill="#242929"/>
<path d="M280.71 37V37.75C279.81 37.91 279.113 37.7367 278.62 37.23C277.927 36.5233 278.06 36.2967 279.02 36.55L280.71 37Z" fill="#633B3B"/>
<path d="M259.69 40.6793C260.344 42.3568 261.609 43.4304 262.514 43.0773C263.42 42.7242 263.624 41.0781 262.97 39.4007C262.316 37.7232 261.051 36.6496 260.146 37.0027C259.24 37.3558 259.036 39.0019 259.69 40.6793Z" fill="#FFB392"/>
<path d="M272.79 37.77C273.31 37.9633 273.467 38.27 273.26 38.69C273.18 38.848 273.05 38.9749 272.889 39.0509C272.728 39.1269 272.545 39.1477 272.37 39.11C271.363 38.8833 271.25 38.4733 272.03 37.88C272.137 37.7977 272.262 37.7443 272.396 37.725C272.529 37.7057 272.665 37.7212 272.79 37.77Z" fill="black"/>
<path d="M279.08 40.47C278.113 39.39 278.207 38.9567 279.36 39.17C279.462 39.1897 279.558 39.2341 279.64 39.2993C279.721 39.3645 279.785 39.4485 279.826 39.5441C279.868 39.6397 279.885 39.7439 279.877 39.8478C279.869 39.9516 279.836 40.0519 279.78 40.14L279.6 40.43C279.574 40.4728 279.539 40.5087 279.496 40.5348C279.453 40.5609 279.405 40.5765 279.354 40.5804C279.304 40.5843 279.253 40.5764 279.205 40.5572C279.157 40.538 279.115 40.5082 279.08 40.47Z" fill="black"/>
<path d="M348.11 41.24C348.843 40.72 349.39 40.84 349.75 41.6C350.09 42.3267 349.863 42.6267 349.07 42.5L348.38 42.4C347.34 42.2333 347.25 41.8467 348.11 41.24Z" fill="black"/>
<path d="M341.5 43.54C341.936 43.54 342.29 43.1863 342.29 42.75C342.29 42.3137 341.936 41.96 341.5 41.96C341.064 41.96 340.71 42.3137 340.71 42.75C340.71 43.1863 341.064 43.54 341.5 43.54Z" fill="black"/>
<path d="M274.86 45.29C277.687 44.91 278.027 45.5133 275.88 47.1C275.728 47.2136 275.546 47.2815 275.357 47.2957C275.167 47.3098 274.977 47.2697 274.81 47.18L272.55 45.96C271.243 45.2533 271.33 44.8533 272.81 44.76C273.27 44.7267 273.73 44.8567 274.19 45.15C274.391 45.273 274.628 45.3225 274.86 45.29Z" fill="#E9E7DD"/>
<path d="M344.94 50.81C344.34 50.6367 343.89 50.2933 343.59 49.78C343.509 49.6408 343.462 49.4839 343.454 49.3228C343.447 49.1617 343.478 49.0011 343.546 48.8547C343.613 48.7083 343.716 48.5805 343.844 48.4822C343.971 48.3839 344.121 48.3179 344.28 48.29L348.58 47.53C349.76 47.3233 350.127 47.7767 349.68 48.89C348.887 50.8633 347.307 51.5033 344.94 50.81Z" fill="#E9E7DD"/>
<path d="M258.5 49.54C258.887 50.38 258.873 51.2 258.46 52C256.833 51.2933 255.2 51.13 253.56 51.51C253.429 51.5402 253.305 51.5968 253.195 51.6762C253.086 51.7556 252.995 51.8563 252.925 51.9721C252.856 52.0879 252.811 52.2166 252.793 52.3503C252.775 52.484 252.784 52.6199 252.82 52.75L253.5 55.21L251.25 55.96C246.74 49.72 253.96 47.58 258.5 49.54Z" fill="#4B5963"/>
<path d="M257.25 54.46C257.463 56.14 258.213 57.5067 259.5 58.56C259.662 58.6833 259.778 58.8557 259.83 59.05C260.457 61.1967 261.847 62.61 264 63.29C268.36 72.9433 268.73 82.7933 265.11 92.84C263.77 92.74 263.08 92.24 263.48 90.8C266.58 79.76 265.64 68.79 258.31 59.68C256.943 57.9733 255.753 58.09 254.74 60.03C250.76 67.68 243.88 97.82 254.1 102.47C254.259 102.541 254.396 102.651 254.497 102.789C254.599 102.928 254.662 103.09 254.68 103.26L254.79 104.24C254.923 105.387 255.383 105.54 256.17 104.7C256.977 103.84 257.92 103.787 259 104.54C258.987 105.48 258.603 106.283 257.85 106.95C257.748 107.039 257.665 107.147 257.607 107.27C257.549 107.392 257.516 107.525 257.511 107.661C257.507 107.797 257.53 107.933 257.58 108.06C257.629 108.187 257.704 108.303 257.8 108.4C258.373 108.98 259.023 109.35 259.75 109.51C261.417 109.877 262.75 110.277 263.75 110.71L261.96 114.25C255.53 115.23 240.2 114.98 238.21 106.84C237.877 105.473 238.03 103.1 238.67 99.72C239.983 92.86 241.037 85.9533 241.83 79C242.66 71.82 242.6 64.58 246.54 58.25L251.25 55.96L253.5 55.21L257.25 54.46ZM253.27 57.19C252.21 57.3233 251.177 57.5567 250.17 57.89C247.097 58.9167 247.177 59.5667 250.41 59.84C251.803 59.9533 252.837 59.9333 253.51 59.78C255.423 59.3267 255.577 58.5233 253.97 57.37C253.765 57.2222 253.514 57.1578 253.27 57.19Z" fill="#638489"/>
<path d="M347.71 56.25C347.79 57.51 348.193 58.62 348.92 59.58C349.056 59.7553 349.242 59.8815 349.45 59.94C352.397 60.7533 354.05 59.5667 354.41 56.38L355.25 56.54C357.2 58.04 355.96 62.05 355.21 63.75C354.823 64.0167 354.437 64 354.05 63.7C352.183 62.2467 350.083 61.4433 347.75 61.29C346.23 60.15 345.397 58.65 345.25 56.79L347.71 56.25Z" fill="#D6E8FF"/>
<path d="M274.93 56.34C275.803 62.5733 278.59 63.88 283.29 60.26C289.69 65.0667 292.877 71.6033 292.85 79.87C292.849 79.9722 292.886 80.0708 292.952 80.1467C293.019 80.2225 293.111 80.27 293.21 80.28C293.55 80.3267 293.747 80.1467 293.8 79.74C294.7 72.7267 292.937 66.2567 288.51 60.33C292.003 63.37 294.973 66.79 297.42 70.59C299.95 74.52 301.25 81.37 305.27 84.4C310.917 88.6533 316.403 93.0867 321.73 97.7C317.543 97.2467 315.287 99.18 314.96 103.5C309.9 101.01 303.28 98.85 298.79 95.67C298.59 95.53 295.06 92.26 295.22 93.74C295.233 93.88 295.29 94.0233 295.39 94.17C297.23 97.0033 297.877 100.11 297.33 103.49C297.303 103.657 297.237 103.81 297.13 103.95C296.323 104.99 296.043 106.173 296.29 107.5L295.71 108.75L294.83 106.42C294.771 106.268 294.677 106.133 294.555 106.025C294.433 105.917 294.288 105.84 294.13 105.8L282.75 102.96C276.99 99.16 271.11 95.7867 265.11 92.84C268.73 82.7933 268.36 72.9433 264 63.29C267.873 64.0433 270.407 62.6 271.6 58.96C273.553 59.1333 274.663 58.26 274.93 56.34Z" fill="#B5C6FC"/>
<path d="M355.25 56.54C361.977 57.96 367.13 61.6133 370.71 67.5L370.79 68C370.68 70.4 371.35 72.51 371.33 74.77C371.27 81.9567 371.473 89.1433 371.94 96.33C372.01 97.37 372.34 97.94 372.5 98.96L372.21 99.75C372.037 100.203 371.12 100.223 369.46 99.81C369.232 99.7537 368.991 99.7789 368.779 99.8811C368.567 99.9833 368.398 100.156 368.3 100.37L366.21 105C362.123 104.727 358.68 105.927 355.88 108.6C355.84 111.007 355.487 113.21 354.82 115.21C354.738 115.458 354.756 115.728 354.872 115.964C354.988 116.199 355.192 116.381 355.44 116.47C357.88 117.33 359.363 119.06 359.89 121.66C359.939 121.902 359.898 122.153 359.775 122.367C359.652 122.581 359.454 122.742 359.22 122.82L357.73 123.29C357.6 123.331 357.463 123.345 357.328 123.331C357.192 123.318 357.06 123.276 356.94 123.21C350.753 119.723 344.273 116.917 337.5 114.79L329.19 111.79C329.018 111.728 328.873 111.608 328.778 111.452C328.683 111.295 328.645 111.111 328.67 110.93C328.723 110.503 328.583 110.18 328.25 109.96C330.263 109.887 331.36 108.9 331.54 107C334.233 105.653 334.29 104.07 331.71 102.25L333.61 92.97L339.67 102.52C339.768 102.67 339.903 102.791 340.06 102.87C341.31 103.5 349.87 108.03 351.97 107.71C352.757 107.583 352.78 107.373 352.04 107.08C348.827 105.773 345.69 104.3 342.63 102.66C337.85 100.1 335.89 92.31 332.82 88.05C332.685 87.8561 332.621 87.6227 332.64 87.39C332.707 86.49 332.257 85.9433 331.29 85.75L330.5 84.46C330.55 84.27 330.67 83.59 330.63 83.43C327.583 69.89 332.457 61.01 345.25 56.79C345.397 58.65 346.23 60.15 347.75 61.29C348.82 62.86 352.48 66.07 354.8 65.8C357.833 67.3867 361.073 68.3833 364.52 68.79C366.153 68.9767 366.61 69.81 365.89 71.29C364.043 75.05 362.91 79.0133 362.49 83.18L359.66 94.69C359.6 94.9348 359.636 95.1933 359.761 95.414C359.885 95.6346 360.088 95.801 360.33 95.88L364.74 97.3C364.9 97.352 365.071 97.3626 365.237 97.3307C365.403 97.2989 365.558 97.2257 365.687 97.1179C365.817 97.0101 365.917 96.8713 365.979 96.7143C366.041 96.5573 366.062 96.3873 366.04 96.22C365.62 92.92 364.927 89.7767 363.96 86.79C365.287 81.01 366.12 75.1633 366.46 69.25C366.472 69.0399 366.419 68.8316 366.308 68.6541C366.196 68.4766 366.033 68.3388 365.84 68.26L355.29 64L355.21 63.75C355.96 62.05 357.2 58.04 355.25 56.54ZM344.86 74.87C343.56 72.4167 341.903 70.25 339.89 68.37C339.846 68.3291 339.796 68.2974 339.743 68.2768C339.689 68.2562 339.634 68.2471 339.58 68.25L339.41 68.26C339.177 68.2667 339.133 68.3733 339.28 68.58C341.07 71.11 343.17 73.41 344.28 76.29C346.107 81.05 347.637 85.93 348.87 90.93C348.926 91.1619 348.898 91.4064 348.79 91.6191C348.681 91.8318 348.501 91.9989 348.28 92.09C345.313 93.31 345.487 93.6867 348.8 93.22C350.51 92.97 356.07 94.85 358.04 95.36C358.97 95.6 359.33 95.27 358.47 94.96C356.043 94.1 353.583 93.2167 351.09 92.31C350.941 92.254 350.807 92.1633 350.699 92.0451C350.592 91.9269 350.513 91.7847 350.47 91.63C349.1 86.57 346.38 80.25 346.35 75.1C346.343 73.9067 346.097 72.7633 345.61 71.67C344.977 70.2367 344.77 70.2967 344.99 71.85C345.09 72.5433 345.323 73.28 345.69 74.06C345.95 74.62 345.887 74.97 345.5 75.11C345.381 75.1546 345.25 75.1548 345.132 75.1106C345.014 75.0664 344.917 74.9808 344.86 74.87ZM356.01 119.06C353 119.2 359.23 121.69 356.74 119.34C356.645 119.248 356.531 119.176 356.406 119.128C356.281 119.08 356.146 119.057 356.01 119.06Z" fill="#C89D77"/>
<path d="M253.97 57.37C255.577 58.5233 255.423 59.3267 253.51 59.78C252.837 59.9333 251.803 59.9533 250.41 59.84C247.177 59.5667 247.097 58.9167 250.17 57.89C251.177 57.5567 252.21 57.3233 253.27 57.19C253.514 57.1578 253.765 57.2221 253.97 57.37Z" fill="#4B5963"/>
<path d="M285.21 57.5L288.51 60.33C292.937 66.2567 294.7 72.7267 293.8 79.74C293.747 80.1467 293.55 80.3267 293.21 80.28C293.111 80.2701 293.019 80.2225 292.952 80.1467C292.886 80.0708 292.849 79.9722 292.85 79.87C292.877 71.6033 289.69 65.0667 283.29 60.26L285.21 57.5Z" fill="#638489"/>
<path d="M246.54 58.25C242.6 64.58 242.66 71.82 241.83 79C239.89 79.0533 239.033 78.2267 239.26 76.52C239.91 71.59 242.09 60.18 246.54 58.25Z" fill="#4B5963"/>
<path d="M265.11 92.84C271.11 95.7867 276.99 99.16 282.75 102.96C280.81 104.447 279.477 106.363 278.75 108.71L274.25 109.29L259 104.54C257.92 103.787 256.977 103.84 256.17 104.7C255.383 105.54 254.923 105.387 254.79 104.24L254.68 103.26C254.662 103.09 254.599 102.928 254.497 102.789C254.396 102.651 254.259 102.541 254.1 102.47C243.88 97.82 250.76 67.68 254.74 60.03C255.753 58.09 256.943 57.9733 258.31 59.68C265.64 68.79 266.58 79.76 263.48 90.8C263.08 92.24 263.77 92.74 265.11 92.84Z" fill="#D6E8FF"/>
<path d="M347.75 61.29C350.083 61.4433 352.183 62.2467 354.05 63.7C354.437 64 354.823 64.0167 355.21 63.75L355.29 64L354.8 65.8C352.48 66.07 348.82 62.86 347.75 61.29Z" fill="#B5C6FC"/>
<path d="M355.29 64L365.84 68.26C366.033 68.3388 366.196 68.4766 366.308 68.6541C366.419 68.8316 366.472 69.0399 366.46 69.25C366.12 75.1633 365.287 81.01 363.96 86.79L362.49 83.18C362.91 79.0133 364.043 75.05 365.89 71.29C366.61 69.81 366.153 68.9767 364.52 68.79C361.073 68.3833 357.833 67.3867 354.8 65.8L355.29 64Z" fill="#9B7656"/>
<path d="M370.79 68C374.11 74.75 377.12 82.28 381.66 88.3C381.796 88.4811 381.994 88.6116 382.22 88.67L394.71 91.75L396.5 102.71L390.75 103.54C384.397 103 378.313 101.473 372.5 98.96C372.34 97.94 372.01 97.37 371.94 96.33C371.473 89.1433 371.27 81.9567 371.33 74.77C371.35 72.51 370.68 70.4 370.79 68Z" fill="#9B7656"/>
<path d="M345.5 75.11C345.887 74.97 345.95 74.62 345.69 74.06C345.323 73.28 345.09 72.5433 344.99 71.85C344.77 70.2967 344.977 70.2367 345.61 71.67C346.097 72.7633 346.343 73.9067 346.35 75.1C346.38 80.25 349.1 86.57 350.47 91.63C350.513 91.7847 350.591 91.9269 350.699 92.0451C350.807 92.1633 350.941 92.254 351.09 92.31C353.583 93.2167 356.043 94.1 358.47 94.96C359.33 95.27 358.97 95.6 358.04 95.36C356.07 94.85 350.51 92.97 348.8 93.22C345.487 93.6867 345.313 93.31 348.28 92.09C348.501 91.9989 348.681 91.8318 348.79 91.6191C348.898 91.4064 348.926 91.1619 348.87 90.93C347.637 85.93 346.107 81.05 344.28 76.29C343.17 73.41 341.07 71.11 339.28 68.58C339.133 68.3733 339.177 68.2667 339.41 68.26L339.58 68.25C339.634 68.2471 339.689 68.2562 339.743 68.2768C339.796 68.2974 339.846 68.3291 339.89 68.37C341.903 70.25 343.56 72.4167 344.86 74.87C344.917 74.9808 345.014 75.0664 345.132 75.1106C345.25 75.1548 345.381 75.1546 345.5 75.11Z" fill="#9B7656"/>
<path d="M405.79 79.25C402.203 80.57 398.57 80.5733 394.89 79.26C398.57 78.2333 402.203 78.23 405.79 79.25Z" fill="#72432C"/>
<path d="M394.89 79.26C398.57 80.5733 402.203 80.57 405.79 79.25C407.09 80.3167 407.647 81.65 407.46 83.25L393.54 82.75L394.89 79.26Z" fill="#42210B"/>
<path d="M393.54 82.75L407.46 83.25L407.21 84L394.15 85.14C393.703 84.6733 393.5 83.8767 393.54 82.75Z" fill="#72432C"/>
<path d="M362.49 83.18L363.96 86.79C364.927 89.7767 365.62 92.92 366.04 96.22C366.062 96.3873 366.041 96.5573 365.979 96.7143C365.917 96.8713 365.817 97.0101 365.687 97.1179C365.558 97.2257 365.403 97.2989 365.237 97.3307C365.071 97.3626 364.9 97.352 364.74 97.3L360.33 95.88C360.088 95.801 359.885 95.6346 359.76 95.4139C359.636 95.1933 359.6 94.9348 359.66 94.69L362.49 83.18Z" fill="#B5C6FC"/>
<path d="M407.21 84L406.79 91.5C406.98 93.35 400.88 92.91 400.72 94.4C400.71 94.5274 400.746 94.6538 400.822 94.7552C400.897 94.8567 401.007 94.926 401.13 94.95C402.583 95.25 402.663 95.7133 401.37 96.34C401.228 96.4076 401.104 96.5101 401.008 96.6388C400.913 96.7675 400.848 96.9188 400.82 97.08C400.673 98 401.237 98.2967 402.51 97.97C403.277 97.7767 403.977 97.6767 404.61 97.67C406.283 97.6567 406.303 97.83 404.67 98.19L401.74 98.83C401.595 98.8627 401.459 98.9273 401.342 99.0192C401.225 99.111 401.13 99.2277 401.064 99.3609C400.998 99.494 400.963 99.6402 400.96 99.7888C400.958 99.9374 400.988 100.085 401.05 100.22L401.52 101.26C401.587 101.415 401.692 101.55 401.826 101.652C401.959 101.753 402.115 101.818 402.28 101.84C403.32 101.99 406.74 102.37 406.54 103.5L400.5 104.54C399.04 104.207 397.707 103.597 396.5 102.71L394.71 91.75L394.15 85.14L407.21 84Z" fill="#C89D77"/>
<path d="M331.29 85.75C332.257 85.9433 332.707 86.49 332.64 87.39C332.621 87.6227 332.685 87.8561 332.82 88.05C335.89 92.31 337.85 100.1 342.63 102.66C345.69 104.3 348.827 105.773 352.04 107.08C352.78 107.373 352.757 107.583 351.97 107.71C349.87 108.03 341.31 103.5 340.06 102.87C339.903 102.791 339.768 102.67 339.67 102.52L333.61 92.97L331.29 85.75Z" fill="#9B7656"/>
<path d="M406.79 91.5L406.97 91.81C407.051 91.956 407.177 92.0723 407.33 92.1424C407.483 92.2125 407.654 92.2326 407.82 92.2C409.833 91.7867 410.353 92.62 409.38 94.7C409.271 94.9375 409.256 95.2061 409.34 95.45L409.6 96.22C409.647 96.3522 409.665 96.4929 409.653 96.6326C409.641 96.7723 409.599 96.9079 409.53 97.03C409.057 97.89 408.963 98.7833 409.25 99.71C408.103 100.703 407.603 101.953 407.75 103.46L406.54 103.5C406.74 102.37 403.32 101.99 402.28 101.84C402.115 101.818 401.959 101.753 401.826 101.652C401.692 101.55 401.587 101.415 401.52 101.26L401.05 100.22C400.988 100.085 400.958 99.9374 400.96 99.7888C400.963 99.6402 400.998 99.494 401.064 99.3609C401.13 99.2277 401.225 99.111 401.342 99.0192C401.459 98.9273 401.595 98.8627 401.74 98.83L404.67 98.19C406.303 97.83 406.283 97.6567 404.61 97.67C403.977 97.6767 403.277 97.7767 402.51 97.97C401.237 98.2967 400.673 98 400.82 97.08C400.848 96.9188 400.913 96.7675 401.008 96.6388C401.104 96.5101 401.228 96.4076 401.37 96.34C402.663 95.7133 402.583 95.25 401.13 94.95C401.007 94.926 400.897 94.8567 400.822 94.7552C400.746 94.6538 400.71 94.5274 400.72 94.4C400.88 92.91 406.98 93.35 406.79 91.5Z" fill="#744747"/>
<path d="M321.73 97.7C324.68 100.28 328.28 100.28 330.75 102.54C330.657 104.1 330.92 105.587 331.54 107C331.36 108.9 330.263 109.887 328.25 109.96C325.7 110.83 322.96 109.69 321.71 112.87C321.635 113.054 321.508 113.211 321.345 113.323C321.181 113.435 320.988 113.497 320.79 113.5H320.47C320.416 113.501 320.363 113.492 320.312 113.473C320.262 113.453 320.216 113.424 320.177 113.387C320.138 113.35 320.107 113.305 320.085 113.256C320.063 113.207 320.051 113.154 320.05 113.1C320.023 111.06 319.327 109.277 317.96 107.75C318.853 107.143 319.863 106.85 320.99 106.87C321.1 106.87 321.207 106.835 321.297 106.768C321.387 106.702 321.454 106.608 321.49 106.5C321.92 105.07 317.59 105.23 316.76 105.38C316.595 105.409 316.424 105.387 316.274 105.315C316.123 105.243 315.999 105.126 315.92 104.98L315.79 104.75L314.96 103.5C315.287 99.18 317.543 97.2467 321.73 97.7Z" fill="#FFB392"/>
<path d="M407.75 103.46C407.603 101.953 408.103 100.703 409.25 99.71C412.51 99.29 417.9 97.68 419.3 101.96C419.344 102.096 419.359 102.24 419.343 102.382C419.328 102.524 419.283 102.661 419.211 102.784C419.139 102.907 419.042 103.013 418.927 103.095C418.811 103.177 418.679 103.233 418.54 103.26C415.97 103.74 409.91 105.09 407.75 103.46Z" fill="black"/>
<path d="M372.21 99.75C375.37 102.19 379.44 100.58 381.79 104.75C381.29 106.003 381.397 106.95 382.11 107.59C382.037 108.67 381.703 109.677 381.11 110.61C381.038 110.73 380.941 110.832 380.825 110.912C380.71 110.991 380.578 111.045 380.44 111.07L376.25 111.79L368.5 111.46C371.547 111.34 372.87 109.98 372.47 107.38C371.95 103.96 368.54 105.27 366.21 105L368.3 100.37C368.398 100.156 368.567 99.9833 368.779 99.8811C368.991 99.7789 369.232 99.7537 369.46 99.81C371.12 100.223 372.037 100.203 372.21 99.75Z" fill="#744747"/>
<path d="M331.71 102.25C334.29 104.07 334.233 105.653 331.54 107C330.92 105.587 330.657 104.1 330.75 102.54L331.71 102.25Z" fill="black"/>
<path d="M396.5 102.71C397.707 103.597 399.04 104.207 400.5 104.54L394.58 105.51C394.321 105.552 394.089 105.694 393.933 105.908C393.778 106.121 393.712 106.388 393.75 106.65L409.12 210.58C409.139 210.713 409.185 210.84 409.256 210.956C409.326 211.071 409.419 211.171 409.53 211.25L410.96 212.25C408.72 212.797 406.987 212.763 405.76 212.15L390.32 107.49C390.281 107.231 390.14 106.998 389.929 106.841C389.718 106.684 389.452 106.615 389.19 106.65L382.11 107.59C381.397 106.95 381.29 106.003 381.79 104.75L390.75 103.54L396.5 102.71Z" fill="#898E98"/>
<path d="M282.75 102.96L294.13 105.8C294.288 105.84 294.433 105.917 294.555 106.025C294.677 106.133 294.771 106.268 294.83 106.42L295.71 108.75L295.54 110.5C296.06 112.2 295.713 113.547 294.5 114.54L292.25 114.79L290.75 115.04C288.48 114.23 286.82 116.19 284.25 114.71C286.73 114.017 287.253 112.137 285.82 109.07C285.737 108.893 285.604 108.744 285.436 108.643C285.269 108.541 285.075 108.491 284.88 108.5L278.75 108.71C279.477 106.363 280.81 104.447 282.75 102.96Z" fill="#FFB392"/>
<path d="M259 104.54L274.25 109.29L271.25 110.04L267.25 110.29C266.023 110.07 264.857 110.21 263.75 110.71C262.75 110.277 261.417 109.877 259.75 109.51C259.023 109.35 258.373 108.98 257.8 108.4C257.704 108.303 257.629 108.187 257.579 108.06C257.53 107.933 257.507 107.797 257.511 107.661C257.516 107.525 257.548 107.392 257.607 107.27C257.665 107.147 257.748 107.039 257.85 106.95C258.603 106.283 258.987 105.48 259 104.54Z" fill="#B5C6FC"/>
<path d="M315.79 104.75L315.92 104.98C315.999 105.126 316.123 105.243 316.274 105.315C316.425 105.387 316.595 105.409 316.76 105.38C317.59 105.23 321.92 105.07 321.49 106.5C321.454 106.608 321.387 106.702 321.297 106.768C321.207 106.835 321.1 106.87 320.99 106.87C319.863 106.85 318.853 107.143 317.96 107.75C316.327 107.563 314.723 107.79 313.15 108.43C312.942 108.513 312.767 108.664 312.655 108.858C312.542 109.052 312.498 109.278 312.53 109.5C317.33 141.96 322.193 174.4 327.12 206.82C327.373 208.48 327.917 209.527 328.75 209.96C326.743 210.82 325.153 210.883 323.98 210.15L309.17 110C309.133 109.743 308.996 109.511 308.789 109.352C308.582 109.193 308.321 109.121 308.06 109.15C304.413 109.57 300.873 110.143 297.44 110.87C297.09 110.95 296.9 111.16 296.75 111.46L295.54 110.5L295.71 108.75L296.29 107.5C298.69 108.52 311.77 106.01 315.2 105.62C315.347 105.603 315.483 105.536 315.587 105.43C315.691 105.325 315.755 105.187 315.77 105.04L315.79 104.75Z" fill="#898E98"/>
<path d="M366.21 105C368.54 105.27 371.95 103.96 372.47 107.38C372.87 109.98 371.547 111.34 368.5 111.46L368.25 111.54C364.83 112.073 361.407 112.16 357.98 111.8C357.809 111.782 357.646 111.722 357.506 111.626C357.366 111.53 357.254 111.4 357.18 111.25L355.88 108.6C358.68 105.927 362.123 104.727 366.21 105Z" fill="black"/>
<path d="M284.25 114.71L277.91 115.64L272.44 115.47C272.26 115.463 272.097 115.417 271.95 115.33C269.79 114.017 269.557 112.253 271.25 110.04L274.25 109.29L278.75 108.71L284.88 108.5C285.075 108.491 285.269 108.541 285.436 108.643C285.604 108.744 285.737 108.893 285.82 109.07C287.253 112.137 286.73 114.017 284.25 114.71Z" fill="black"/>
<path d="M355.88 108.6L357.18 111.25C357.254 111.4 357.366 111.53 357.506 111.626C357.646 111.722 357.809 111.782 357.98 111.8C361.407 112.16 364.83 112.073 368.25 111.54C367.963 113.547 368.057 115.513 368.53 117.44C368.571 117.61 368.657 117.767 368.778 117.894C368.899 118.021 369.051 118.114 369.219 118.164C369.387 118.213 369.565 118.218 369.736 118.177C369.906 118.136 370.063 118.051 370.19 117.93L373 115.26L378.96 144.32C379.008 144.564 378.965 144.818 378.837 145.032C378.71 145.246 378.508 145.406 378.27 145.48L374.75 146.54L369.25 147.71C369.02 146.14 366.84 130.63 366.65 130.54C366.628 130.53 366.604 130.526 366.58 130.529C366.556 130.532 366.533 130.543 366.513 130.559C366.493 130.575 366.477 130.596 366.466 130.621C366.455 130.646 366.449 130.673 366.45 130.7C366.623 136.493 367.14 142.247 368 147.96L367.5 148.54C359.933 149.687 352.327 149.647 344.68 148.42C343.44 147.8 342.1 147.647 340.66 147.96L340.25 147.46L339.69 146.65C339.58 146.487 339.52 146.292 339.52 146.09L339.51 144.02C339.443 131.08 338.91 131.06 337.91 143.96C337.837 144.873 337.783 145.79 337.75 146.71L332.8 145.3C332.577 145.236 332.383 145.096 332.251 144.904C332.12 144.713 332.059 144.481 332.08 144.25C332.967 133.803 334.773 123.983 337.5 114.79C344.273 116.917 350.753 119.723 356.94 123.21C357.06 123.276 357.192 123.318 357.328 123.331C357.464 123.345 357.6 123.331 357.73 123.29L359.22 122.82C359.454 122.742 359.652 122.581 359.775 122.367C359.899 122.153 359.939 121.902 359.89 121.66C359.363 119.06 357.88 117.33 355.44 116.47C355.192 116.381 354.988 116.199 354.872 115.964C354.756 115.728 354.738 115.458 354.82 115.21C355.487 113.21 355.84 111.007 355.88 108.6Z" fill="#242929"/>
<path d="M271.25 110.04C269.557 112.253 269.79 114.017 271.95 115.33C272.097 115.417 272.26 115.463 272.44 115.47L277.91 115.64C275.41 119.487 271.993 122.073 267.66 123.4C267.519 123.444 267.37 123.456 267.224 123.435C267.077 123.414 266.938 123.361 266.814 123.28C266.691 123.198 266.587 123.091 266.51 122.965C266.433 122.839 266.385 122.697 266.37 122.55C265.923 118.397 266.217 114.31 267.25 110.29L271.25 110.04Z" fill="#898E98"/>
<path d="M267.25 110.29C266.217 114.31 265.923 118.397 266.37 122.55C266.385 122.697 266.433 122.839 266.51 122.965C266.587 123.091 266.691 123.198 266.814 123.28C266.937 123.361 267.077 123.414 267.224 123.435C267.37 123.456 267.519 123.444 267.66 123.4C271.993 122.073 275.41 119.487 277.91 115.64L284.25 114.71C286.82 116.19 288.48 114.23 290.75 115.04C291.99 116.21 294.98 135.6 295.51 138.66C296.92 146.95 296.78 155.66 297.28 164.25C297.753 172.45 296.877 181.977 294.65 192.83C294.697 200.337 294.563 207.707 294.25 214.94C294.203 216.093 293.62 216.793 292.5 217.04L287.88 218.15L281.5 218.54L280 218.29L278.71 217.5L277.96 216C277.2 204.567 275.367 193.317 272.46 182.25C269.68 165.07 264.26 147.71 260.83 131.56C259.46 125.12 260 120.16 261.96 114.25L263.75 110.71C264.857 110.21 266.023 110.07 267.25 110.29ZM278.16 176.39C277.5 179.33 277.1 181.46 277.8 184.61C279.08 190.38 278.54 195.21 280.16 202.15C280.169 202.193 280.19 202.233 280.22 202.266C280.25 202.299 280.287 202.325 280.33 202.34C280.623 202.447 280.73 202.253 280.65 201.76C279.943 197.38 279.557 192.977 279.49 188.55C279.45 185.98 278.67 183.79 278.23 181.28C278.197 181.104 278.218 180.92 278.29 180.75C279.59 177.42 279.23 175.45 277.12 172.34C274.73 168.83 272.49 161.84 272.27 158.5C271.87 152.29 270.63 146.25 270.28 140.05C270.22 138.93 270.067 137.827 269.82 136.74C269.247 134.233 269.073 134.26 269.3 136.82C269.853 142.967 270.413 149.113 270.98 155.26C271.633 162.247 273.987 169.043 278.04 175.65C278.174 175.875 278.217 176.14 278.16 176.39Z" fill="#D4D4E1"/>
<path d="M295.54 110.5L296.75 111.46C299.25 125.91 300.05 140.73 301.61 155.32C302.37 162.44 303.27 170.52 301.06 177.44C299.367 182.727 297.23 187.857 294.65 192.83C296.877 181.977 297.753 172.45 297.28 164.25C296.78 155.66 296.92 146.95 295.51 138.66C294.98 135.6 291.99 116.21 290.75 115.04L292.25 114.79C292.24 119.02 293.73 123.02 294.07 127.29C294.075 127.358 294.093 127.424 294.125 127.484C294.157 127.544 294.2 127.597 294.254 127.64C294.307 127.684 294.369 127.715 294.435 127.734C294.502 127.753 294.571 127.758 294.64 127.75C295.36 127.66 294.54 115.99 294.5 114.54C295.713 113.547 296.06 112.2 295.54 110.5Z" fill="#BBBBC7"/>
<path d="M368.25 111.54L368.5 111.46L376.25 111.79C375.677 113.19 374.593 114.347 373 115.26L370.19 117.93C370.063 118.051 369.906 118.136 369.736 118.177C369.565 118.218 369.387 118.213 369.219 118.164C369.051 118.114 368.899 118.021 368.778 117.894C368.657 117.767 368.571 117.61 368.53 117.44C368.057 115.513 367.963 113.547 368.25 111.54Z" fill="#C89D77"/>
<path d="M294.5 114.54C294.54 115.99 295.36 127.66 294.64 127.75C294.571 127.758 294.502 127.753 294.435 127.734C294.369 127.715 294.307 127.684 294.254 127.64C294.2 127.597 294.157 127.544 294.125 127.484C294.094 127.424 294.075 127.358 294.07 127.29C293.73 123.02 292.24 119.02 292.25 114.79L294.5 114.54Z" fill="#D4D4E1"/>
<path d="M356.74 119.34C359.23 121.69 353 119.2 356.01 119.06C356.146 119.057 356.281 119.08 356.406 119.128C356.531 119.176 356.645 119.248 356.74 119.34Z" fill="#744747"/>
<path d="M369.25 147.71L368 147.96C367.14 142.247 366.623 136.493 366.45 130.7C366.449 130.673 366.455 130.646 366.466 130.621C366.477 130.596 366.493 130.575 366.513 130.559C366.533 130.543 366.556 130.532 366.58 130.529C366.604 130.526 366.628 130.53 366.65 130.54C366.84 130.63 369.02 146.14 369.25 147.71Z" fill="black"/>
<path d="M278.04 175.65C273.987 169.043 271.633 162.247 270.98 155.26C270.413 149.113 269.853 142.967 269.3 136.82C269.073 134.26 269.247 134.233 269.82 136.74C270.067 137.827 270.22 138.93 270.28 140.05C270.63 146.25 271.87 152.29 272.27 158.5C272.49 161.84 274.73 168.83 277.12 172.34C279.23 175.45 279.59 177.42 278.29 180.75C278.218 180.92 278.197 181.104 278.23 181.28C278.67 183.79 279.45 185.98 279.49 188.55C279.557 192.977 279.943 197.38 280.65 201.76C280.73 202.253 280.623 202.447 280.33 202.34C280.287 202.325 280.25 202.299 280.22 202.266C280.19 202.233 280.17 202.193 280.16 202.15C278.54 195.21 279.08 190.38 277.8 184.61C277.1 181.46 277.5 179.33 278.16 176.39C278.217 176.14 278.174 175.875 278.04 175.65Z" fill="#BBBBC7"/>
<path d="M340.25 147.46L337.75 146.71C337.783 145.79 337.837 144.873 337.91 143.96C338.91 131.06 339.443 131.08 339.51 144.02L339.52 146.09C339.52 146.292 339.579 146.487 339.69 146.65L340.25 147.46Z" fill="black"/>
<path d="M374.75 146.54L374.71 155.25C372.89 154.93 371.05 154.987 369.19 155.42C369.05 155.452 368.904 155.453 368.763 155.424C368.622 155.395 368.489 155.335 368.374 155.25C368.258 155.164 368.162 155.055 368.092 154.929C368.022 154.803 367.981 154.664 367.97 154.52L367.5 148.54L368 147.96L369.25 147.71L374.75 146.54Z" fill="#42210B"/>
<path d="M344.68 148.42C351.107 152.947 357.927 155.1 365.14 154.88C367 154.82 367.97 155.687 368.05 157.48L369.14 181.99C368.473 196.33 369.247 210.583 371.46 224.75C369.85 225.14 362.05 226.09 361.96 227.5L361.75 227.46C360.557 221.5 358.77 215.657 356.39 209.93C353.82 201.8 353.19 196.26 356.24 187.59C356.323 187.358 356.32 187.106 356.23 186.88L353.63 180.32C348.69 169.74 344.367 158.953 340.66 147.96C342.1 147.647 343.44 147.8 344.68 148.42Z" fill="#744747"/>
<path d="M344.68 148.42C352.327 149.647 359.933 149.687 367.5 148.54L367.97 154.52C367.981 154.664 368.022 154.803 368.092 154.929C368.162 155.055 368.258 155.164 368.373 155.25C368.489 155.335 368.622 155.395 368.763 155.424C368.904 155.453 369.05 155.452 369.19 155.42C371.05 154.987 372.89 154.93 374.71 155.25C374.457 160.81 373.95 166.35 373.19 171.87C372.6 176.21 372.79 178.82 369.14 181.99L368.05 157.48C367.97 155.687 367 154.82 365.14 154.88C357.927 155.1 351.107 152.947 344.68 148.42Z" fill="#633B3B"/>
<path d="M353.63 180.32L356.23 186.88C356.32 187.106 356.324 187.358 356.24 187.59C353.19 196.26 353.82 201.8 356.39 209.93L353.21 221.25C349.777 221.65 346.47 221.15 343.29 219.75C344.52 204.61 343.42 192.96 353.63 180.32Z" fill="#633B3B"/>
<path d="M272.46 182.25C275.367 193.317 277.2 204.567 277.96 216L267.29 215L266.98 214.48C266.87 214.298 266.824 214.08 266.85 213.86C268.003 203.2 269.873 192.663 272.46 182.25Z" fill="#BBBBC7"/>
<path d="M328.75 209.96C329.81 213.393 330.297 216.907 330.21 220.5L329.5 221.29L326.5 221.79C325.587 221.737 324.97 222.03 324.65 222.67C322.95 226.11 319.673 233.097 314.82 243.63C314.24 244.877 313.48 245.95 312.54 246.85C311.687 247.657 310.703 248.567 309.59 249.58L249.25 232.46C241.3 230.79 242.13 223.98 235.04 221.75C234.6 221.55 228.35 219.5 232.5 218.46C238.12 219.4 241.96 222.087 244.02 226.52C244.7 227.973 245.81 228.927 247.35 229.38C266.93 235.053 286.313 240.683 305.5 246.27C311.52 248.03 312.52 243.06 314.46 239L317.04 233.25L320.24 226.36C320.325 226.173 320.351 225.964 320.313 225.762C320.276 225.56 320.177 225.374 320.03 225.23C319.21 224.417 318.2 223.937 317 223.79C316.76 223.69 310.02 221.09 314.5 220.46L320.89 222.74C321.085 222.81 321.297 222.817 321.496 222.762C321.695 222.706 321.871 222.59 322 222.43C323.027 221.157 323.597 219.68 323.71 218C323.37 216.07 321.65 211.16 323.98 210.15C325.153 210.883 326.743 210.82 328.75 209.96Z" fill="#D4D4E1"/>
<path d="M405.76 212.15C406.987 212.763 408.72 212.797 410.96 212.25C411.94 215.83 412.247 219.433 411.88 223.06L407.75 224.04L407.29 224.01C407.085 223.996 406.88 224.044 406.703 224.15C406.526 224.255 406.385 224.412 406.3 224.6C400.8 237.033 397.303 244.687 395.81 247.56C395.083 248.947 393.563 250.08 391.25 250.96C389.37 251.047 387.537 250.797 385.75 250.21L386 249.54H387.75C389.863 249.593 391.627 248.83 393.04 247.25C393.973 246.37 394.53 245.287 394.71 244L405.48 220.83C405.559 220.66 405.59 220.47 405.57 220.28C405.27 217.953 404.923 215.68 404.53 213.46C404.36 212.52 404.48 212.3 405.76 212.15Z" fill="#D4D4E1"/>
<path d="M277.96 216L278.71 217.5C277.037 218.24 275.777 219.41 274.93 221.01C274.851 221.157 274.736 221.282 274.598 221.375C274.459 221.467 274.299 221.524 274.134 221.54C273.968 221.556 273.802 221.53 273.649 221.466C273.497 221.401 273.363 221.3 273.26 221.17C271.58 219.07 270.8 216.78 267.54 217.25L267.29 215L277.96 216Z" fill="#242929"/>
<path d="M264.36 228.11L264.29 232C264.397 233.687 265.05 234.603 266.25 234.75C269.797 235.177 274.783 235.01 281.21 234.25L281.79 235C282.45 237.51 287.81 238.53 290 239.04C293.9 240.55 299.11 243.26 303.32 242.82L307.71 243C309.423 243.707 310.687 243.303 311.5 241.79C312.94 241.29 313.703 240.277 313.79 238.75L314.46 239C312.52 243.06 311.52 248.03 305.5 246.27C286.313 240.683 266.93 235.053 247.35 229.38C245.81 228.927 244.7 227.973 244.02 226.52C241.96 222.087 238.12 219.4 232.5 218.46C236.73 216.91 240.63 215.85 245.05 217.51C249.983 219.35 254.3 222.19 258 226.03C258.12 226.157 258.26 226.243 258.42 226.29L264.36 228.11Z" fill="#333341"/>
<path d="M292.5 217.04L294 223.71L292.31 225.01C292.227 225.073 292.162 225.155 292.118 225.249C292.075 225.343 292.056 225.447 292.062 225.551C292.067 225.656 292.099 225.757 292.152 225.848C292.206 225.938 292.281 226.014 292.37 226.07C292.817 226.337 292.907 226.737 292.64 227.27C292.566 227.418 292.529 227.582 292.533 227.747C292.536 227.913 292.58 228.075 292.66 228.22C293.207 229.187 293.923 229.807 294.81 230.08C294.996 230.136 295.162 230.245 295.286 230.395C295.411 230.544 295.489 230.727 295.51 230.92C295.83 233.68 298.65 234.57 300.88 235.6C301.078 235.691 301.301 235.715 301.514 235.668C301.727 235.621 301.919 235.506 302.06 235.34L304.29 232.75L309 234.46C306.58 234.533 304.753 235.477 303.52 237.29C303.436 237.416 303.38 237.558 303.358 237.708C303.335 237.858 303.347 238.01 303.391 238.154C303.435 238.298 303.511 238.43 303.613 238.54C303.715 238.65 303.84 238.736 303.98 238.79C307.34 240.123 310.36 239.443 313.04 236.75L313.5 238.21C306.74 244.1 295.85 238.21 287.57 236.38C285.63 235.953 283.703 235.493 281.79 235L281.21 234.25C281.923 233.523 281.853 232.927 281 232.46C282.173 229.587 282.493 226.6 281.96 223.5L282 220.04C283.8 219.853 285.407 220.267 286.82 221.28C287.034 221.434 287.3 221.497 287.56 221.456C287.821 221.415 288.054 221.272 288.21 221.06C288.93 220.087 288.82 219.117 287.88 218.15L292.5 217.04Z" fill="#638489"/>
<path d="M267.54 217.25C270.8 216.78 271.58 219.07 273.26 221.17C273.363 221.3 273.497 221.401 273.649 221.466C273.802 221.53 273.968 221.556 274.134 221.54C274.299 221.524 274.459 221.467 274.598 221.375C274.736 221.282 274.851 221.157 274.93 221.01C275.777 219.41 277.037 218.24 278.71 217.5L280 218.29C279.573 220.43 280.227 222.167 281.96 223.5C282.493 226.6 282.173 229.587 281 232.46C274.61 231.6 270.43 235.18 264.29 232L264.36 228.11C265.887 224.677 266.947 221.057 267.54 217.25Z" fill="#4B5963"/>
<path d="M323.71 218C323.597 219.68 323.027 221.157 322 222.43C321.871 222.59 321.695 222.706 321.496 222.762C321.297 222.817 321.085 222.81 320.89 222.74L314.5 220.46L323.71 218Z" fill="#333341"/>
<path d="M287.88 218.15C288.82 219.117 288.93 220.087 288.21 221.06C288.054 221.272 287.821 221.415 287.56 221.456C287.3 221.497 287.034 221.434 286.82 221.28C285.407 220.267 283.8 219.853 282 220.04L281.5 218.54L287.88 218.15Z" fill="black"/>
<path d="M343.29 219.75C346.47 221.15 349.777 221.65 353.21 221.25L352.79 223.75C351.943 225.47 351.94 226.827 352.78 227.82C353.66 228.867 353.42 229.303 352.06 229.13C348.553 228.67 345.377 227.37 342.53 225.23L343.29 219.75Z" fill="#D4D4E1"/>
<path d="M330.21 220.5L341.46 228.75L341.5 234.96L336.38 233.56L331.98 224.79C329.707 224.77 328.88 223.603 329.5 221.29L330.21 220.5Z" fill="#333341"/>
<path d="M329.5 221.29C328.88 223.603 329.707 224.77 331.98 224.79L331.5 225.04C329.32 224.5 328.71 227.03 326 225.46C325.867 224.187 326.033 222.963 326.5 221.79L329.5 221.29Z" fill="#898E98"/>
<path d="M235.04 221.75C242.13 223.98 241.3 230.79 249.25 232.46C248.14 232.96 248.49 234.15 248.19 235.04C246.23 240.93 241.11 239.81 238.09 235.83C235.037 231.817 234.02 227.123 235.04 221.75Z" fill="#242929"/>
<path d="M326.5 221.79C326.033 222.963 325.867 224.187 326 225.46C324.05 225.41 325.39 237.68 325.64 240.41C324.04 241.837 323.327 243.68 323.5 245.94L309.59 249.58C310.703 248.567 311.687 247.657 312.54 246.85C313.48 245.95 314.24 244.877 314.82 243.63C319.673 233.097 322.95 226.11 324.65 222.67C324.97 222.03 325.587 221.737 326.5 221.79Z" fill="#8F9ECE"/>
<path d="M411.88 223.06C410.667 225.127 411.123 226.427 413.25 226.96C411.6 227.22 409.01 229.17 407.96 227.25C407.613 226.19 407.543 225.12 407.75 224.04L411.88 223.06Z" fill="#898E98"/>
<path d="M294 223.71C296.32 227.977 299.75 230.99 304.29 232.75L302.06 235.34C301.919 235.506 301.727 235.621 301.514 235.668C301.301 235.715 301.078 235.691 300.88 235.6C298.65 234.57 295.83 233.68 295.51 230.92C295.489 230.727 295.411 230.544 295.287 230.395C295.162 230.245 294.996 230.136 294.81 230.08C293.923 229.807 293.207 229.187 292.66 228.22C292.58 228.075 292.536 227.913 292.533 227.747C292.529 227.582 292.566 227.418 292.64 227.27C292.907 226.737 292.817 226.337 292.37 226.07C292.281 226.014 292.206 225.938 292.152 225.848C292.099 225.757 292.067 225.656 292.062 225.551C292.056 225.447 292.075 225.343 292.118 225.249C292.162 225.155 292.228 225.073 292.31 225.01L294 223.71Z" fill="#BBBBC7"/>
<path d="M317 223.79C318.2 223.937 319.21 224.417 320.03 225.23C320.177 225.374 320.276 225.56 320.313 225.762C320.351 225.964 320.325 226.173 320.24 226.36L317.04 233.25C316.52 230.09 316.507 226.937 317 223.79Z" fill="#242929"/>
<path d="M352.79 223.75C355.543 225.583 358.53 226.82 361.75 227.46L361.96 227.5L362.04 233L361.46 234.75C357.47 235.55 352.52 234.85 348.96 236.75C346.207 236.97 343.72 236.373 341.5 234.96L341.46 228.75L342.53 225.23C345.377 227.37 348.553 228.67 352.06 229.13C353.42 229.303 353.66 228.867 352.78 227.82C351.94 226.827 351.943 225.47 352.79 223.75Z" fill="#72432C"/>
<path d="M407.75 224.04C407.543 225.12 407.613 226.19 407.96 227.25C405.84 227.57 407.13 239.16 407.21 241.25L405.4 247.86C400.7 249.787 395.983 250.82 391.25 250.96C393.563 250.08 395.083 248.947 395.81 247.56C397.303 244.687 400.8 237.033 406.3 224.6C406.385 224.412 406.526 224.255 406.703 224.15C406.88 224.044 407.085 223.996 407.29 224.01L407.75 224.04Z" fill="#8F9ECE"/>
<path d="M371.46 224.75C372.08 227.297 373.143 229.727 374.65 232.04C372.077 232.773 371.03 234.213 371.51 236.36C371.548 236.529 371.541 236.705 371.49 236.871C371.44 237.037 371.347 237.186 371.221 237.305C371.094 237.424 370.94 237.509 370.771 237.55C370.603 237.591 370.427 237.588 370.26 237.54C367.173 236.653 364.433 235.14 362.04 233L361.96 227.5C362.05 226.09 369.85 225.14 371.46 224.75Z" fill="#E9E7DD"/>
<path d="M331.5 225.04C328.19 227.81 330.09 232.15 330.79 235.75L331 236.29C331.853 240.97 332.74 245.62 333.66 250.24C334.3 253.46 333.213 255.17 330.4 255.37C330.15 255.39 329.902 255.311 329.71 255.15C324.85 251.26 326.77 245.56 325.64 240.41C325.39 237.68 324.05 225.41 326 225.46C328.71 227.03 329.32 224.5 331.5 225.04Z" fill="#D4D4E1"/>
<path d="M331.5 225.04L331.98 224.79L336.38 233.56L336 235.96C334.273 235.547 332.537 235.477 330.79 235.75C330.09 232.15 328.19 227.81 331.5 225.04Z" fill="#8F9ECE"/>
<path d="M413.25 226.96L413.5 227.04C410.12 229.45 412.06 234.97 412.96 238.25L413.04 238.75C413.933 243.437 414.827 248.097 415.72 252.73C416.247 255.503 415.137 257.027 412.39 257.3C412.146 257.326 411.896 257.254 411.69 257.1C409.223 255.24 407.977 252.853 407.95 249.94C407.91 246.34 407.53 244.23 407.21 241.25C407.13 239.16 405.84 227.57 407.96 227.25C409.01 229.17 411.6 227.22 413.25 226.96Z" fill="#B5C6FC"/>
<path d="M413.5 227.04L413.98 227.18C414.123 227.22 414.256 227.293 414.367 227.392C414.478 227.49 414.564 227.613 414.62 227.75L419.04 238C417.33 237.94 414.11 236.75 412.96 238.25C412.06 234.97 410.12 229.45 413.5 227.04Z" fill="#8F9ECE"/>
<path d="M264.29 232C270.43 235.18 274.61 231.6 281 232.46C281.853 232.927 281.923 233.523 281.21 234.25C274.783 235.01 269.797 235.177 266.25 234.75C265.05 234.603 264.397 233.687 264.29 232Z" fill="#BBBBC7"/>
<path d="M374.65 232.04C376.743 234.347 379.127 236.363 381.8 238.09C385.27 240.32 389.02 240.4 392.54 243.5L393.04 247.25C391.627 248.83 389.863 249.593 387.75 249.54L389.36 248.7C389.466 248.644 389.558 248.565 389.629 248.468C389.7 248.371 389.748 248.259 389.77 248.14C389.92 247.35 383.92 248.07 382.81 247.97C377.24 247.48 374.54 242.86 369.07 241.97C368.21 241.823 367.353 241.643 366.5 241.43C362.12 240.303 361.977 240.703 366.07 242.63C367.063 243.097 368.12 243.433 369.24 243.64C369.423 243.679 369.592 243.765 369.73 243.89C370.443 244.543 371.31 244.827 372.33 244.74C372.564 244.721 372.796 244.781 372.99 244.91C376.883 247.617 381.22 249.16 386 249.54L385.75 250.21C378.85 250.63 376.17 247.53 370.25 245.8C367.297 244.94 364.367 244.007 361.46 243C361.533 241.9 361.117 240.983 360.21 240.25L361.46 234.75L362.04 233C364.433 235.14 367.173 236.653 370.26 237.54C370.427 237.587 370.603 237.591 370.771 237.55C370.94 237.509 371.094 237.424 371.221 237.305C371.347 237.186 371.44 237.037 371.49 236.871C371.541 236.705 371.548 236.529 371.51 236.36C371.03 234.213 372.077 232.773 374.65 232.04Z" fill="#B16F47"/>
<path d="M336.38 233.56L341.5 234.96C343.72 236.373 346.207 236.97 348.96 236.75L360.21 240.25C361.117 240.983 361.533 241.9 361.46 243L338.25 236.46L336 235.96L336.38 233.56Z" fill="#D4D4E1"/>
<path d="M309 234.46C310.72 234.587 312.067 235.35 313.04 236.75C310.36 239.443 307.34 240.123 303.98 238.79C303.84 238.736 303.715 238.65 303.613 238.54C303.511 238.43 303.435 238.298 303.391 238.154C303.347 238.01 303.335 237.858 303.358 237.708C303.38 237.559 303.435 237.416 303.52 237.29C304.753 235.477 306.58 234.533 309 234.46Z" fill="#D4D4E1"/>
<path d="M313.5 238.21L313.79 238.75C313.703 240.277 312.94 241.29 311.5 241.79C310.147 241.897 308.883 242.3 307.71 243L303.32 242.82C299.06 240.88 294.62 239.62 290 239.04C287.81 238.53 282.45 237.51 281.79 235C283.703 235.493 285.63 235.953 287.57 236.38C295.85 238.21 306.74 244.1 313.5 238.21Z" fill="#D4D4E1"/>
<path d="M361.46 234.75L360.21 240.25L348.96 236.75C352.52 234.85 357.47 235.55 361.46 234.75Z" fill="#333341"/>
<path d="M336 235.96L338.25 236.46C338.137 236.433 338.033 236.423 337.94 236.43C337.053 236.477 337.017 236.683 337.83 237.05C346.01 240.74 350.17 262.34 337.44 263.18C337.78 261.947 338.543 261.007 339.73 260.36C339.954 260.244 340.123 260.047 340.2 259.81C343.4 250.49 340.5 240.47 331 236.29L330.79 235.75C332.537 235.477 334.273 235.547 336 235.96Z" fill="#242929"/>
<path d="M331 236.29C340.5 240.47 343.4 250.49 340.2 259.81C340.123 260.047 339.954 260.244 339.73 260.36C338.543 261.007 337.78 261.947 337.44 263.18C328.31 264.06 323.9 253.81 323.5 245.94C323.327 243.68 324.04 241.837 325.64 240.41C326.77 245.56 324.85 251.26 329.71 255.15C329.902 255.311 330.15 255.39 330.4 255.37C333.213 255.17 334.3 253.46 333.66 250.24C332.74 245.62 331.853 240.97 331 236.29Z" fill="#464646"/>
<path d="M419.04 238C425.44 243.007 428.093 249.59 427 257.75C426.32 262.81 423.403 265.24 418.25 265.04C418.817 265.167 419.187 265.05 419.36 264.69C419.573 264.25 419.733 263.983 419.84 263.89C426.76 257.84 422.54 240.31 413.04 238.75L412.96 238.25C414.11 236.75 417.33 237.94 419.04 238Z" fill="#242929"/>
<path d="M413.04 238.75C422.54 240.31 426.76 257.84 419.84 263.89C419.733 263.983 419.573 264.25 419.36 264.69C419.187 265.05 418.817 265.167 418.25 265.04C409.84 265.56 405.53 255.02 405.4 247.86L407.21 241.25C407.53 244.23 407.91 246.34 407.95 249.94C407.977 252.853 409.223 255.24 411.69 257.1C411.896 257.254 412.146 257.326 412.39 257.3C415.137 257.027 416.247 255.503 415.72 252.73C414.827 248.097 413.933 243.437 413.04 238.75Z" fill="#464646"/>
<path d="M290 239.04C294.62 239.62 299.06 240.88 303.32 242.82C299.11 243.26 293.9 240.55 290 239.04Z" fill="#638489"/>
<path d="M387.75 249.54H386C381.22 249.16 376.883 247.617 372.99 244.91C372.796 244.781 372.563 244.721 372.33 244.74C371.31 244.827 370.443 244.543 369.73 243.89C369.592 243.765 369.423 243.679 369.24 243.64C368.12 243.433 367.063 243.097 366.07 242.63C361.977 240.703 362.12 240.303 366.5 241.43C367.353 241.643 368.21 241.823 369.07 241.97C374.54 242.86 377.24 247.48 382.81 247.97C383.92 248.07 389.92 247.35 389.77 248.14C389.748 248.259 389.7 248.371 389.629 248.468C389.558 248.565 389.466 248.644 389.36 248.7L387.75 249.54Z" fill="#72432C"/>
<path d="M311.5 241.79C310.687 243.303 309.423 243.707 307.71 243C308.883 242.3 310.147 241.897 311.5 241.79Z" fill="#638489"/>
<path d="M392.54 243.5L394.71 244C394.53 245.287 393.973 246.37 393.04 247.25L392.54 243.5Z" fill="#333341"/>
</svg>
